<?xml version="1.0" standalone="no"?>
<!DOCTYPE svg PUBLIC "-//W3C//DTD SVG 20010904//EN"
 "http://www.w3.org/TR/2001/REC-SVG-20010904/DTD/svg10.dtd">
<svg version="1.0" xmlns="http://www.w3.org/2000/svg"
 width="456.000000pt" height="905.000000pt" viewBox="0 0 456.000000 905.000000"
 preserveAspectRatio="xMidYMid meet">

<g transform="translate(0.000000,905.000000) scale(0.100000,-0.100000)"
fill="#000000" stroke="none">
<path d="M1283 8808 c-322 -151 -366 -169 -391 -160 -31 11 -47 -1 -57 -40 -4
-14 -12 -25 -19 -25 -22 0 -761 -348 -745 -351 8 -1 178 74 378 168 l364 170
44 -16 45 -17 -44 -17 c-24 -10 -198 -90 -388 -179 -190 -90 -351 -165 -357
-168 -7 -3 -17 7 -23 22 -6 15 -13 25 -16 22 -7 -6 15 -49 30 -59 6 -4 39 9
73 28 35 19 63 32 63 29 0 -4 38 14 85 40 47 25 85 43 85 40 0 -4 29 10 65 30
36 20 65 33 65 30 0 -4 34 12 75 34 41 23 75 39 75 35 0 -3 34 13 75 35 41 23
75 39 75 36 0 -3 17 3 38 13 l37 19 347 -156 347 -156 1 -655 c0 -619 -1 -656
-18 -668 -13 -10 -17 -23 -14 -46 3 -24 -1 -35 -12 -39 -9 -4 -16 -2 -16 3 0
10 -28 -11 -84 -64 l-31 -28 40 30 c48 35 78 46 111 38 l24 -6 0 -194 0 -194
-27 4 c-20 3 -31 -1 -40 -15 -10 -16 -9 -20 2 -25 22 -8 18 -22 -6 -23 -17 -2
-20 3 -17 22 3 13 2 26 -1 28 -3 2 0 2 7 1 6 -2 12 1 12 6 0 6 -7 10 -15 10
-8 0 -15 5 -15 11 0 5 -5 7 -11 4 -19 -13 -113 -7 -124 7 -8 11 -42 14 -147
13 -76 0 -138 2 -138 5 0 4 77 66 170 139 94 73 170 135 170 138 0 3 -6 1 -12
-4 -7 -6 -121 -94 -253 -197 -217 -170 -268 -216 -236 -216 6 0 11 -7 11 -16
0 -8 -4 -13 -8 -10 -4 2 -13 2 -19 -2 -11 -7 53 -55 297 -223 69 -47 161 -111
204 -142 78 -56 79 -57 44 -57 -18 0 -39 5 -46 10 -6 6 -10 8 -8 4 2 -3 -4
-14 -15 -25 -19 -19 -24 -45 -13 -73 5 -12 20 -16 60 -16 45 0 54 -3 54 -17 0
-45 -252 -2150 -260 -2168 -6 -13 -9 7 -8 60 0 44 -1 209 -1 368 l-1 287 -325
0 -325 0 0 -475 c0 -373 3 -475 13 -475 7 0 8 -3 2 -8 -16 -11 -14 -714 3
-707 6 2 12 0 12 -5 0 -6 149 -11 387 -12 l386 -3 84 -275 c45 -151 82 -279
80 -283 -3 -10 -276 -135 -486 -223 -118 -50 -156 -62 -163 -52 -5 9 -8 9 -8
2 0 -7 -11 -11 -25 -10 -14 0 -25 5 -25 10 0 4 -11 6 -25 4 l-25 -5 -1 186
c-1 102 -1 242 0 311 1 184 24 170 -274 167 -184 -1 -247 -5 -257 -15 -10 -10
-13 -165 -13 -783 0 -738 1 -771 19 -784 14 -11 73 -14 256 -15 210 0 239 1
251 16 15 18 18 73 18 427 l1 217 54 0 c35 0 56 5 59 13 3 9 8 9 18 1 8 -6 52
-26 99 -44 47 -18 213 -91 370 -162 309 -141 318 -145 308 -134 -3 4 -188 90
-410 191 -377 171 -434 192 -411 150 3 -5 0 -4 -8 3 -7 6 -21 12 -31 12 -16 0
-18 10 -18 94 0 128 18 135 23 9 l3 -98 2 108 c2 88 5 107 17 107 10 0 15 -10
15 -27 0 -16 2 -50 5 -78 2 -27 -1 -55 -7 -62 -6 -8 -8 -16 -4 -20 3 -3 6 -1
6 5 0 7 6 12 13 12 20 0 241 -102 263 -121 11 -11 23 -17 26 -13 3 3 77 -27
165 -67 87 -40 208 -94 268 -121 61 -27 114 -53 120 -59 13 -13 28 -11 19 2
-3 6 -1 15 6 19 7 4 9 13 6 19 -10 16 -36 13 -36 -4 0 -21 -1 -20 -125 41 -60
29 -99 51 -86 48 17 -4 21 -3 16 6 -4 7 -17 9 -31 6 -17 -5 -23 -2 -22 6 2 8
-7 12 -24 11 -15 -1 -27 3 -25 9 1 6 -5 12 -13 13 -22 4 -168 63 -210 84 -10
5 -17 30 -21 72 l-6 64 -1 -67 c-2 -65 -12 -84 -29 -55 -7 12 -125 69 -205 99
-21 7 -28 17 -28 37 0 15 -5 32 -11 38 -8 8 -8 13 0 17 16 10 13 36 -3 30 -20
-8 -28 10 -13 29 9 12 644 307 661 307 10 0 12 -40 2 -44 -6 -3 5 -4 24 -1
l35 5 -40 -19 c-47 -23 -40 -27 11 -6 35 14 36 14 124 -40 86 -54 106 -64 96
-47 -3 5 1 9 9 9 11 0 12 -4 4 -13 -7 -9 0 -18 26 -34 l35 -22 -2 -71 c0 -40
-3 -58 -5 -41 -5 38 -19 42 -143 42 -78 -1 -86 -3 -87 -21 -3 -27 -13 -35 -24
-16 -8 15 -30 16 -170 15 -139 -2 -163 -4 -174 -19 -7 -9 -17 -17 -24 -17 -6
0 -11 -6 -11 -12 0 -9 -4 -8 -11 2 -9 13 -10 13 -8 0 1 -8 -2 -24 -6 -34 -6
-13 -5 -21 3 -24 6 -2 10 -9 8 -15 -1 -7 -1 -9 1 -4 3 4 9 7 14 7 6 0 8 -4 5
-8 -2 -4 11 -18 29 -31 37 -25 83 -25 76 -1 -14 49 -12 102 4 121 10 10 23 19
28 19 6 0 3 -6 -8 -13 -12 -10 -14 -16 -7 -21 7 -4 16 -5 20 -2 4 2 6 -10 4
-28 -2 -21 2 -39 12 -49 11 -11 12 -17 4 -19 -18 -6 -36 14 -30 34 5 20 -13
25 -24 6 -5 -7 -3 -8 6 -3 9 5 10 2 6 -13 -4 -11 -2 -23 4 -27 6 -3 8 -11 5
-16 -4 -5 -2 -9 4 -9 5 0 13 5 16 10 3 6 11 10 16 10 6 0 7 -5 3 -11 -4 -7 -1
-10 7 -7 8 3 13 11 11 18 -1 6 3 10 10 7 7 -2 12 -10 10 -17 -1 -6 3 -10 10
-7 7 2 12 10 10 17 -1 6 3 10 10 7 7 -2 12 -9 11 -15 -2 -7 20 -11 57 -11 45
1 62 5 70 17 8 14 11 15 19 3 6 -9 11 -10 15 -2 10 16 24 13 29 -6 4 -17 5
-17 6 -1 1 12 6 15 18 11 12 -5 14 -3 8 7 -6 10 -4 11 6 4 21 -13 43 -11 55 5
9 12 12 8 16 -18 l5 -32 -74 2 c-40 1 -76 -1 -80 -4 -3 -4 43 -7 104 -7 92 0
112 3 117 16 9 24 7 31 -4 13 -14 -24 -54 -19 -58 8 -4 28 17 70 27 54 4 -7 9
5 10 26 1 21 3 44 3 51 2 23 18 12 18 -13 0 -14 5 -25 10 -25 6 0 10 -5 10
-11 0 -5 -4 -7 -10 -4 -5 3 -10 -1 -10 -10 0 -9 5 -13 10 -10 5 3 10 1 10 -4
0 -6 -4 -11 -10 -11 -5 0 -10 -8 -10 -17 0 -15 2 -16 10 -3 6 10 10 -36 10
-140 -1 -137 -3 -158 -19 -178 -12 -14 -30 -22 -49 -22 l-30 0 0 -79 1 -79 51
-6 c28 -3 75 -6 104 -6 l52 0 0 -265 0 -265 -417 0 -418 0 -380 -67 c-209 -37
-383 -72 -387 -77 -4 -6 -8 -28 -8 -49 l0 -38 43 5 c23 3 53 8 67 11 14 3 41
8 60 11 54 8 83 13 110 19 14 3 41 8 60 11 43 6 89 14 115 19 34 6 78 14 115
20 19 3 44 8 55 10 42 8 81 15 114 20 34 4 48 11 40 19 -3 3 -169 -24 -369
-60 -201 -35 -373 -64 -382 -64 -13 0 -18 8 -18 30 0 17 3 30 8 30 8 0 119 19
485 84 142 25 262 46 267 46 6 0 10 -11 10 -24 0 -60 -95 -56 1149 -56 l1136
1 383 -68 c237 -41 386 -63 391 -57 6 5 11 27 13 48 l3 39 -380 68 -380 68
-427 1 -428 0 0 264 0 263 93 7 c50 4 103 8 117 10 14 3 28 5 32 5 4 1 8 13
10 27 3 24 28 38 293 158 264 119 358 160 423 187 12 5 32 13 45 19 53 23 77
29 77 20 0 -6 5 -10 11 -10 5 0 7 5 4 10 -3 6 -2 10 4 10 5 0 12 -4 15 -8 2
-4 19 -9 37 -10 18 -1 34 -4 35 -5 2 -1 4 -145 6 -320 3 -269 5 -319 18 -327
9 -6 118 -10 258 -9 l242 0 15 29 c13 24 14 135 12 784 -2 603 -5 758 -15 768
-20 20 -480 24 -507 5 -21 -16 -24 -69 -25 -473 l0 -181 -31 5 c-25 4 -30 2
-24 -9 6 -11 5 -12 -6 -1 -21 20 -31 14 -15 -10 10 -16 15 -53 15 -125 l0
-103 -27 0 c-20 0 -23 3 -14 12 7 7 12 16 12 21 0 5 -8 0 -18 -11 -23 -26
-821 -386 -852 -384 -18 1 -21 -1 -11 -7 19 -12 6 -45 -15 -37 -9 3 -29 6 -46
6 -26 0 -29 2 -18 15 15 18 40 20 40 3 0 -6 3 -8 7 -4 4 4 7 21 8 39 0 22 5
32 15 32 8 0 14 -6 12 -13 -1 -6 2 -12 8 -12 5 0 10 7 10 16 0 9 5 12 13 8 8
-5 8 -3 -2 9 -12 15 -9 19 30 36 57 25 48 26 -20 2 -64 -22 -117 -18 -142 13
-16 18 -18 41 -19 154 0 99 3 132 13 132 9 0 9 2 -1 9 -11 7 -10 10 3 15 23 9
23 9 28 -16 l4 -23 2 23 c1 23 15 29 26 11 5 -6 12 -4 21 8 10 13 13 14 14 4
0 -11 4 -10 19 3 12 11 21 14 26 7 3 -6 1 -11 -5 -11 -6 0 -9 -4 -5 -10 3 -5
21 -7 40 -5 25 4 37 0 44 -13 10 -16 10 -16 11 1 0 9 5 17 10 17 6 0 9 -5 8
-12 -2 -8 23 -13 82 -14 49 -2 79 1 71 5 -8 5 -31 7 -52 5 -39 -4 -53 8 -24
20 8 3 15 1 15 -3 0 -5 18 -7 40 -4 33 5 40 3 40 -11 0 -11 9 -16 31 -16 18 0
28 4 24 10 -4 6 -15 8 -26 5 -11 -4 -19 -2 -19 4 0 6 8 11 19 11 19 0 30 24
32 70 0 14 3 19 6 12 2 -6 9 -10 14 -6 13 8 11 -10 -2 -23 -15 -15 -3 -47 12
-37 8 4 9 3 5 -4 -4 -6 -14 -9 -24 -6 -13 5 -14 4 -4 -4 8 -5 13 -13 12 -18
-1 -5 4 -10 11 -13 6 -2 9 1 6 6 -4 6 3 19 14 29 11 10 18 23 15 30 -3 7 0 15
7 18 8 3 8 5 1 5 -6 1 -9 12 -6 26 3 17 -1 27 -12 31 -9 3 -16 13 -16 21 0 8
-5 11 -11 8 -7 -5 -5 -13 5 -24 9 -10 16 -35 16 -57 0 -27 -3 -35 -9 -25 -5 8
-7 20 -4 27 3 8 -4 25 -16 40 -11 14 -19 30 -16 34 6 9 -91 7 -100 -2 -4 -4 2
-4 13 -1 11 2 22 0 26 -5 9 -15 -49 -8 -69 8 -17 14 -18 13 -12 -2 4 -13 1
-18 -9 -18 -9 0 -14 6 -11 13 3 8 -1 14 -9 14 -9 0 -13 -6 -9 -16 4 -11 0 -10
-15 4 -21 19 -23 19 -35 2 -17 -23 -25 -21 -25 7 0 23 -2 23 -92 24 -108 0
-138 -5 -138 -23 0 -10 7 -11 30 -5 25 7 30 6 30 -10 0 -14 -8 -17 -35 -17
l-35 1 0 62 0 62 129 81 128 81 63 -26 c34 -14 64 -23 66 -21 3 2 -24 15 -58
28 -35 13 -55 25 -46 27 9 2 27 -2 38 -8 12 -6 25 -9 28 -5 3 3 -4 8 -16 12
-24 6 -26 11 -14 30 9 14 59 -7 422 -174 107 -50 205 -93 218 -97 12 -4 22
-12 22 -17 0 -5 5 -9 11 -9 5 0 8 4 5 9 -4 5 0 12 6 14 18 8 -11 27 -29 20 -7
-3 -19 -1 -26 4 -6 5 -39 20 -72 33 -79 30 -527 231 -539 241 -8 7 16 91 134
479 l29 95 386 -2 c230 -1 385 2 385 7 0 5 7 7 15 4 13 -5 15 38 15 350 0 196
-3 356 -7 356 -5 0 -7 218 -5 485 l2 485 -320 0 c-176 0 -321 -1 -322 -2 -1
-2 -5 -166 -8 -366 l-5 -362 -128 1082 c-70 596 -128 1089 -128 1096 1 8 20
12 59 12 l58 0 2 35 c2 22 -4 41 -16 53 -18 18 -13 22 149 135 l167 117 59 -4
c32 -2 47 -2 33 0 -69 12 -76 15 -58 27 9 7 60 41 112 77 52 36 95 68 96 72 0
4 -66 -39 -147 -95 -516 -360 -448 -323 -572 -311 l-61 7 0 128 c0 108 2 129
15 129 14 0 19 12 16 33 0 4 4 7 10 7 6 0 8 -8 5 -18 -4 -13 0 -18 14 -19 22
-2 25 9 10 38 -10 17 -7 19 22 20 24 1 27 3 11 6 -15 3 -23 12 -23 24 0 19
-14 24 -57 20 l-21 -2 -1 276 c-1 243 0 275 14 275 13 0 15 7 9 38 -9 49 -18
58 -11 9 3 -22 2 -35 -4 -32 -15 10 -10 72 7 89 14 15 14 16 0 16 -14 0 -16
66 -16 658 l0 657 38 16 c20 9 174 78 342 154 168 76 310 138 315 138 6 0 84
-35 175 -78 91 -42 192 -90 225 -105 33 -15 138 -64 233 -109 95 -45 175 -81
177 -81 11 0 46 83 38 90 -4 3 -178 85 -385 181 -307 141 -379 178 -384 197
-3 12 -10 22 -16 22 -5 0 -7 4 -3 9 3 6 -7 6 -27 0 -18 -5 -34 -14 -36 -19 -2
-6 -13 -10 -25 -10 -12 -1 -33 -7 -46 -14 -21 -12 -48 -1 -330 130 -298 139
-306 143 -309 173 -2 19 -9 31 -18 31 -8 0 -14 5 -14 11 0 14 -32 28 373 -161
192 -89 351 -159 354 -156 4 3 4 8 2 10 -2 2 -165 78 -361 170 l-358 166 -647
-1 -648 -1 -362 -170z m377 147 c0 -8 -7 -15 -15 -15 -10 0 -15 -10 -15 -32 0
-18 0 -158 0 -310 0 -153 -2 -278 -6 -278 -3 0 -99 42 -212 94 -114 51 -246
110 -293 131 l-87 39 42 22 c22 12 44 20 49 17 4 -2 7 1 7 8 0 7 3 9 7 6 3 -4
34 9 68 28 34 19 65 32 69 28 3 -3 6 0 6 7 0 7 3 10 7 7 3 -4 34 9 68 28 34
19 65 32 69 28 3 -3 6 0 6 7 0 7 3 10 7 7 3 -4 35 9 69 28 35 20 65 35 66 34
2 -1 13 1 26 5 21 7 31 26 14 26 -5 0 -138 -61 -298 -136 -159 -75 -295 -136
-301 -135 -7 0 -20 2 -28 3 -8 1 -15 5 -15 10 0 5 -6 8 -12 7 -41 -5 -36 4 12
25 97 41 665 308 675 317 13 12 15 11 15 -6z m630 -20 l0 -35 -290 0 c-248 0
-290 2 -290 15 0 8 -9 19 -20 25 -11 6 -20 15 -20 20 0 6 118 10 310 10 l310
0 0 -35z m630 25 c0 -5 -9 -14 -20 -20 -11 -6 -20 -17 -20 -25 0 -13 -42 -15
-290 -15 l-290 0 0 35 0 35 310 0 c192 0 310 -4 310 -10z m-1252 -47 c-5 -25
-28 -28 -28 -4 0 12 6 21 16 21 9 0 14 -7 12 -17z m32 1 c0 -8 -4 -12 -10 -9
-5 3 -10 10 -10 16 0 5 5 9 10 9 6 0 10 -7 10 -16z m1210 1 c0 -8 -4 -15 -10
-15 -5 0 -10 7 -10 15 0 8 5 15 10 15 6 0 10 -7 10 -15z m40 -6 c0 -24 -23
-21 -28 4 -2 10 3 17 12 17 10 0 16 -9 16 -21z m-1250 -320 c0 -164 -2 -299
-4 -299 -1 0 -16 5 -32 10 l-29 10 3 282 c2 250 5 283 19 294 41 29 43 16 43
-297z m1170 1 l0 -300 -320 0 -320 0 0 30 c0 18 6 33 15 36 9 4 15 19 15 35 0
19 -5 29 -15 29 -12 0 -15 14 -15 64 0 47 -4 65 -15 69 -8 4 -17 2 -21 -4 -3
-6 -12 -8 -20 -5 -8 3 -21 3 -29 0 -12 -5 -15 -29 -15 -130 l0 -124 -105 0
-105 0 0 35 c0 24 5 35 15 35 10 0 15 10 15 30 0 20 -5 30 -15 30 -12 0 -15
14 -15 64 l0 64 -50 0 -50 1 0 -130 0 -129 -50 0 -50 0 0 300 0 300 575 0 575
0 0 -300z m67 292 c9 -6 13 -81 15 -289 3 -244 1 -283 -12 -286 -8 -3 -23 -8
-32 -12 -17 -7 -18 11 -18 294 0 280 1 301 18 301 9 0 22 -4 29 -8z m388 -192
c110 -51 208 -95 217 -99 11 -4 -80 -50 -265 -133 -155 -70 -290 -130 -299
-133 -17 -7 -18 10 -18 263 l0 271 83 -38 c45 -21 172 -80 282 -131z m-1948
-286 c245 -110 253 -116 237 -157 -4 -13 -21 -8 -92 25 -48 22 -217 98 -377
170 -159 72 -294 134 -299 139 -6 5 -5 18 2 33 l11 25 138 -63 c76 -34 247
-112 380 -172z m2363 205 c7 -11 10 -22 8 -24 -2 -2 -97 -46 -213 -98 -115
-52 -235 -106 -265 -120 -210 -96 -284 -127 -288 -122 -3 3 -7 15 -9 26 -3 22
-11 19 367 189 124 56 257 116 295 135 84 40 91 41 105 14z m400 -209 c200
-94 365 -172 367 -174 2 -1 -2 -17 -8 -34 l-10 -30 -32 18 c-55 32 -743 350
-758 351 -12 0 54 36 71 38 3 1 170 -76 370 -169z m-1186 -155 c-2 -26 1 -45
7 -45 6 0 8 -4 5 -9 -3 -5 -6 -550 -6 -1212 l0 -1202 -30 28 -30 29 0 1201 c0
921 3 1204 12 1213 9 9 8 12 -7 12 -20 0 -20 -16 -17 -1197 1 -817 -1 -1200
-8 -1207 -7 -7 -10 354 -8 1172 l3 1183 -290 -1 c-159 0 -424 0 -587 0 l-298
0 0 25 c0 17 -5 25 -17 24 -11 0 -13 -3 -5 -6 9 -4 12 -255 12 -1212 l0 -1207
-30 -29 -30 -29 -1 30 c-1 16 -1 32 0 36 0 4 1 552 1 1218 l0 1210 330 0 330
0 2 -32 1 -33 4 33 4 32 325 0 c209 0 324 4 324 10 0 6 2 10 4 10 2 0 2 -20 0
-45z m-1144 -72 c0 -12 -17 -17 -50 -15 -9 1 -16 -7 -16 -17 0 -12 8 -19 21
-20 11 0 53 -3 93 -7 l72 -6 0 35 c0 22 6 37 15 41 10 3 15 -1 15 -13 0 -10 7
-18 15 -18 8 0 15 6 15 14 0 8 13 13 35 13 24 0 35 -5 35 -15 0 -8 7 -15 15
-15 18 0 19 12 4 27 -9 9 -7 11 7 8 11 -2 22 -4 27 -4 4 -1 7 -17 7 -36 0 -33
2 -35 35 -35 l35 0 2 -107 2 -108 3 98 c3 90 5 97 24 97 20 0 20 -5 18 -185
-2 -123 -6 -185 -14 -185 -6 0 -10 21 -10 49 0 27 3 47 8 44 4 -2 7 14 7 36
l0 41 -45 -2 c-44 -2 -45 -3 -45 -35 0 -19 5 -33 13 -34 9 0 9 -2 -1 -6 -6 -2
-9 -9 -6 -15 4 -6 -7 -8 -27 -6 -22 2 -33 8 -31 16 1 8 -2 11 -7 8 -5 -4 -13
-1 -17 5 -4 8 -9 7 -16 -2 -8 -11 -9 -10 -4 4 4 13 0 17 -19 17 -19 0 -23 -4
-19 -17 4 -11 3 -14 -3 -7 -9 13 -46 3 -41 -11 2 -5 -14 -12 -34 -16 -33 -5
-36 -4 -25 9 16 20 16 92 0 92 -10 0 -13 27 -13 101 l0 101 38 -4 c36 -3 38
-2 39 27 0 21 -1 23 -4 8 -4 -19 -11 -23 -44 -23 l-39 0 0 -105 c0 -63 -4
-105 -10 -105 -6 0 -10 42 -10 105 l0 105 -64 0 -64 0 1 38 c0 20 4 39 8 42
16 11 69 5 69 -7z m1050 -633 l0 -650 -260 0 -260 0 0 365 0 365 37 0 c20 0
34 3 31 6 -4 3 -76 6 -162 6 -86 0 -158 4 -161 8 -2 4 5 17 16 28 20 23 18 26
-16 22 -39 -4 -8 10 36 17 51 7 42 7 186 5 l112 -2 4 -47 3 -48 2 53 2 52 -45
0 -45 0 0 185 0 185 45 0 45 0 0 50 0 50 215 0 215 0 0 -650z m-440 600 l0
-40 -112 1 c-109 0 -112 1 -70 14 23 7 51 11 62 8 16 -4 20 0 20 17 0 18 -4
21 -23 16 -14 -3 -32 1 -43 9 -17 13 -9 14 74 15 l92 0 0 -40z m-702 -1577
l-3 -733 585 0 584 0 31 -30 30 -30 -323 0 -322 0 -2 33 -1 32 -4 -32 -4 -33
-321 0 -320 0 31 35 31 36 2 1147 c2 631 4 958 6 727 1 -231 1 -750 0 -1152z
m132 1427 c0 -82 -3 -100 -15 -100 -11 0 -15 -11 -15 -41 0 -29 4 -38 13 -34
6 3 2 -2 -10 -11 -24 -17 -30 -34 -12 -34 5 0 7 6 3 13 -4 6 -3 8 1 4 16 -14
15 -39 -1 -33 -9 3 -12 1 -9 -4 7 -12 35 -13 35 -2 0 4 16 7 35 6 22 -1 35 3
35 10 0 18 125 40 149 26 11 -5 33 -10 49 -10 16 0 35 -7 43 -16 7 -9 22 -14
36 -11 13 2 23 0 23 -4 0 -9 -15 -13 -37 -10 -7 1 -13 -3 -13 -9 0 -5 -16 -10
-35 -10 -24 0 -35 5 -35 14 0 9 -9 14 -20 13 -11 -1 -20 -4 -20 -7 0 -3 -11
-6 -25 -6 -14 0 -25 3 -25 8 0 4 -7 5 -15 2 -10 -4 -14 -1 -12 7 2 8 -1 4 -7
-8 -7 -17 -18 -23 -43 -23 -18 0 -33 5 -33 11 0 5 -5 7 -10 4 -16 -10 -1 -25
26 -25 13 0 24 -5 24 -11 0 -6 7 -17 15 -25 8 -9 15 -22 15 -30 0 -11 -22 -14
-115 -13 -89 1 -115 5 -115 15 0 7 6 11 14 8 8 -3 17 0 21 6 6 9 9 9 15 0 10
-15 30 -4 30 16 0 9 -8 14 -22 13 -38 -3 -58 0 -58 11 0 6 28 10 65 10 56 0
65 3 64 18 0 10 -3 12 -6 5 -3 -9 -26 -13 -64 -13 l-59 0 0 185 0 185 60 0 60
0 0 -100z m480 -85 l0 -185 -35 0 -35 0 0 185 0 185 35 0 35 0 0 -185z m-443
-71 c-6 -38 -13 -51 -22 -42 -3 3 -9 22 -12 42 -5 32 -3 36 17 36 20 0 22 -4
17 -36z m310 0 c-6 -38 -13 -51 -22 -42 -3 3 -9 22 -12 42 -5 32 -3 36 17 36
20 0 22 -4 17 -36z m-317 -64 c0 -5 -4 -10 -10 -10 -5 0 -10 5 -10 10 0 6 5
10 10 10 6 0 10 -4 10 -10z m310 0 c0 -5 -4 -10 -10 -10 -5 0 -10 5 -10 10 0
6 5 10 10 10 6 0 10 -4 10 -10z m-213 -76 c-3 -3 -12 -4 -19 -1 -8 3 -5 6 6 6
11 1 17 -2 13 -5z m64 -9 c1 -17 -18 -17 -25 0 -4 11 -1 15 10 13 8 -2 15 -7
15 -13z m19 -33 c0 -4 -5 -13 -11 -19 -7 -7 6 -10 43 -11 29 0 74 -1 101 -1
l47 -1 0 -365 0 -365 -255 0 -255 0 0 365 0 365 118 1 c64 1 133 1 152 1 32
-1 30 2 -8 14 -7 2 -10 8 -7 14 7 12 75 14 75 2z m270 -402 l0 -370 -35 0 -35
0 0 370 0 370 35 0 35 0 0 -370z m-720 -415 c0 -19 -3 -35 -7 -35 -5 0 -8 16
-8 35 0 19 3 35 8 35 4 0 7 -16 7 -35z m641 23 c0 -10 2 -10 6 0 7 17 33 15
33 -3 0 -8 -8 -15 -17 -16 -14 0 -15 -2 -3 -6 8 -3 18 -11 22 -17 5 -8 8 -7 8
2 0 6 6 12 14 12 8 0 18 9 21 20 6 19 15 20 266 20 l259 0 0 -30 0 -30 -277
-2 c-153 -2 -407 -2 -565 0 l-288 3 0 29 0 30 260 0 c201 0 260 -3 261 -12z
m71 -3 c0 -5 -5 -11 -11 -13 -6 -2 -11 4 -11 13 0 9 5 15 11 13 6 -2 11 -8 11
-13z m538 -195 l0 -130 -565 0 -565 0 0 130 0 130 565 0 565 0 0 -130z m-690
-170 l0 -30 -220 0 -220 0 0 30 0 30 220 0 220 0 0 -30z m690 0 l0 -30 -220 0
-220 0 0 30 0 30 220 0 220 0 0 -30z m-450 -10 l0 -30 -115 0 -115 0 0 30 0
30 115 0 115 0 0 -30z m450 -150 c0 -105 -1 -110 -21 -110 -16 0 -20 -5 -16
-20 10 -40 -16 -50 -134 -50 -97 0 -109 2 -109 18 0 32 15 38 117 41 100 3
101 2 106 -21 4 -21 4 -20 6 5 l1 27 -115 0 c-106 0 -115 1 -115 19 0 25 -19
31 -93 30 -58 -2 -59 -2 -22 -9 l40 -7 -39 -2 c-46 -1 -44 -9 2 -13 18 -1 32
-5 32 -9 0 -13 -25 -16 -57 -7 -24 6 -37 18 -47 43 -8 19 -18 35 -21 35 -3 0
-1 -9 5 -19 5 -11 10 -29 10 -40 0 -12 6 -21 16 -21 13 0 13 -2 -2 -17 -13
-13 -19 -14 -22 -5 -2 8 -10 4 -23 -10 -10 -13 -18 -18 -19 -11 0 6 5 15 10
18 6 3 10 18 10 32 0 19 -4 24 -16 19 -12 -4 -14 -1 -9 14 5 15 0 21 -20 26
-14 3 -34 4 -45 1 -11 -3 -18 -1 -14 4 8 13 -10 11 -24 -3 -15 -15 -15 -29 0
-25 6 1 13 -7 15 -18 l3 -20 -9 20 c-5 11 -10 14 -10 7 -1 -7 -5 -10 -11 -7
-6 4 -10 -6 -10 -22 0 -16 3 -23 8 -16 5 8 11 3 19 -13 11 -23 10 -24 -5 -12
-15 11 -15 10 1 -8 9 -11 17 -36 16 -55 0 -19 -3 -28 -6 -21 -6 14 -33 16 -33
2 0 -6 -30 -10 -70 -10 -38 0 -70 4 -70 9 0 6 24 7 55 4 53 -6 67 1 45 23 -6
6 -2 10 13 11 12 0 16 -1 9 -4 -13 -5 -7 -23 9 -23 5 0 9 18 9 40 0 22 -2 40
-4 40 -2 0 -12 3 -22 7 -13 5 -15 3 -9 -8 4 -8 5 -11 0 -7 -4 4 -14 3 -22 -4
-11 -9 -18 -8 -31 5 -15 16 -14 17 16 17 21 0 32 5 32 15 0 9 6 12 15 9 10 -4
15 0 15 16 0 11 -4 18 -10 15 -5 -3 -10 1 -10 10 0 9 4 14 9 11 5 -3 15 2 22
12 13 15 12 16 -3 3 -11 -8 -18 -9 -18 -3 0 24 61 57 107 57 41 1 51 -3 85
-37 l38 -38 -2 88 c-1 61 -3 71 -5 34 l-4 -54 -26 27 c-15 14 -32 24 -40 21
-7 -3 -13 -1 -13 4 0 10 -82 6 -100 -5 -6 -3 -8 -11 -4 -16 3 -5 2 -9 -3 -8
-20 3 -27 -2 -13 -12 12 -8 11 -9 -5 -7 -16 2 -21 13 -26 48 -5 40 -6 37 -8
-25 -1 -38 -5 -75 -9 -82 -4 -7 -36 -13 -72 -15 -56 -3 -66 -6 -75 -25 -9 -22
-15 -23 -122 -23 l-113 0 1 -27 c1 -17 3 -21 6 -11 6 22 48 30 143 26 73 -3
75 -4 75 -28 0 -25 0 -25 -108 -28 -59 -1 -115 2 -125 7 -13 7 -23 6 -30 -1
-9 -9 -12 -8 -12 4 0 19 27 31 34 15 2 -7 5 0 5 16 1 21 -4 27 -19 27 -19 0
-20 7 -20 110 l0 110 338 2 c185 2 439 2 565 0 l227 -3 0 -109z m-1794 68
c-17 -23 -21 -75 -8 -95 4 -6 7 8 7 32 0 28 7 50 19 64 29 32 40 25 15 -9 -13
-16 -20 -33 -16 -37 4 -3 7 0 7 8 0 8 6 5 15 -8 8 -12 13 -28 10 -36 -7 -16
22 -44 33 -33 4 4 0 13 -8 19 -9 7 -14 20 -12 30 2 9 -1 17 -7 17 -19 0 -12
27 8 33 14 3 18 1 14 -9 -3 -8 -1 -14 5 -14 5 0 12 7 16 15 4 11 20 15 56 15
46 0 50 -2 41 -18 -7 -13 -4 -31 10 -63 10 -24 13 -36 5 -26 -9 12 -27 17 -59
17 -40 0 -48 4 -61 28 -13 23 -15 24 -16 7 0 -12 5 -26 12 -33 9 -9 9 -15 1
-23 -14 -14 -30 -4 -54 35 -14 24 -19 27 -19 12 0 -11 7 -28 17 -38 9 -10 11
-18 5 -18 -6 0 -14 5 -17 10 -4 6 -10 8 -15 5 -15 -9 -33 25 -33 64 0 27 -4
38 -12 35 -7 -3 -11 -17 -9 -32 l4 -27 -9 25 c-9 28 5 54 25 46 7 -3 15 2 18
10 3 8 10 14 16 14 7 0 5 -9 -4 -22z m211 16 c-3 -3 -12 -4 -19 -1 -8 3 -5 6
6 6 11 1 17 -2 13 -5z m37 -25 c-2 -4 7 -29 21 -56 19 -36 20 -42 6 -25 -19
22 -40 14 -25 -9 4 -8 0 -7 -15 1 -31 16 -42 50 -25 76 13 18 50 31 38 13z
m116 -1 c0 -4 -6 -8 -14 -8 -8 0 -17 4 -20 8 -2 4 4 8 15 8 10 0 19 -4 19 -8z
m60 4 c0 -4 -10 -9 -22 -9 -18 -2 -20 0 -8 7 18 12 30 13 30 2z m120 -47 c0
-26 -4 -33 -17 -31 -11 2 -19 13 -21 30 -2 14 -8 24 -13 21 -5 -4 -9 -4 -9 0
0 8 44 24 53 18 4 -2 7 -19 7 -38z m-169 19 c32 1 46 -2 45 -11 -3 -16 -16
-30 -16 -16 0 6 -11 8 -25 5 -15 -2 -25 0 -25 7 0 6 -4 11 -10 11 -5 0 -10 -6
-10 -14 0 -20 -21 -31 -30 -16 -11 18 0 52 14 42 6 -5 32 -8 57 -8z m-449 -29
c4 -19 2 -23 -7 -15 -9 8 -14 7 -17 -1 -3 -8 -11 -10 -23 -6 -17 7 -17 8 1 21
10 8 22 12 26 10 5 -3 8 0 8 5 0 20 8 11 12 -14z m515 3 c-3 -8 -6 -5 -6 6 -1
11 2 17 5 13 3 -3 4 -12 1 -19z m-457 -65 c6 -7 21 -13 33 -13 12 0 82 -2 155
-3 122 -2 133 -1 138 17 5 16 14 18 63 14 31 -3 67 -2 81 2 25 8 25 8 2 9 -13
1 -20 6 -17 11 8 13 45 13 45 -1 0 -6 12 -9 28 -7 25 3 27 0 30 -37 2 -22 0
-37 -4 -33 -4 5 -14 2 -22 -5 -13 -9 -14 -9 -8 1 5 8 1 11 -16 9 -26 -4 -41
-44 -24 -66 8 -11 8 -13 -1 -8 -7 5 -9 0 -6 -14 4 -13 8 -16 13 -9 5 8 11 6
20 -5 7 -8 21 -15 31 -15 18 0 19 -9 19 -130 0 -71 -3 -130 -7 -131 -78 -9
-86 -6 -203 75 -63 45 -126 91 -140 103 -14 13 -29 23 -33 23 -9 0 -37 25 -37
34 0 2 12 7 28 9 15 2 8 3 -16 1 -34 -3 -48 1 -66 19 -12 12 -51 42 -87 67
-54 37 -65 48 -61 67 2 13 -1 30 -8 38 -11 13 -10 14 3 10 8 -4 18 -1 23 6 5
9 11 7 20 -7 7 -10 18 -25 24 -31z m375 37 c3 -5 -3 -10 -15 -10 -12 0 -18 5
-15 10 3 6 10 10 15 10 5 0 12 -4 15 -10z m57 -4 c7 4 8 2 4 -5 -9 -13 -26 -5
-25 12 0 9 2 8 6 -1 2 -6 10 -9 15 -6z m-521 -33 c-11 -5 -11 -7 0 -14 7 -4
10 -11 6 -15 -13 -13 -27 10 -20 34 4 18 8 20 17 11 8 -8 7 -13 -3 -16z m254
7 c3 -5 2 -10 -4 -10 -5 0 -13 5 -16 10 -3 6 -2 10 4 10 5 0 13 -4 16 -10z
m35 0 c0 -5 -4 -10 -10 -10 -5 0 -10 5 -10 10 0 6 5 10 10 10 6 0 10 -4 10
-10z m916 -38 c-5 -13 -16 -19 -41 -20 -44 -2 -46 13 -3 16 46 4 48 12 2 13
l-39 2 40 6 c48 8 48 8 41 -17z m-109 -44 c6 17 40 15 40 -2 0 -8 -5 -14 -11
-13 -6 1 -12 -11 -13 -28 -1 -27 -1 -28 5 -5 7 25 26 31 50 16 8 -5 18 -4 24
2 12 12 38 5 38 -10 0 -6 -9 -8 -20 -5 -11 3 -20 2 -20 -2 0 -4 -6 -8 -14 -8
-8 0 -15 3 -14 6 2 20 -5 19 -31 -6 -68 -65 -71 -64 -71 21 1 57 2 60 16 41
11 -14 18 -16 21 -7z m511 -59 l-3 -49 148 0 147 0 0 -30 0 -30 -220 0 -220 0
0 25 c0 24 2 25 65 25 58 0 65 2 65 20 0 13 -5 18 -15 14 -8 -4 -15 -10 -15
-15 0 -5 -31 -9 -70 -9 -40 0 -70 4 -70 10 0 6 -7 10 -16 10 -8 0 -12 -4 -9
-10 3 -5 1 -10 -4 -10 -20 0 -12 66 9 85 20 18 20 17 20 -16 0 -44 15 -59 60
-59 67 0 80 8 79 49 -1 27 -3 30 -6 11 -3 -13 -12 -30 -21 -37 -19 -15 -94
-14 -85 0 3 6 1 7 -5 3 -7 -4 -12 -3 -12 3 0 5 9 9 19 8 11 0 17 -5 15 -9 -3
-4 2 -5 10 -2 8 3 12 12 9 21 -4 11 -2 14 8 11 8 -3 14 -10 14 -15 0 -6 4 -15
9 -20 5 -5 6 -3 2 5 -5 7 -3 11 5 10 6 -2 14 3 16 10 3 8 -2 10 -14 6 -17 -5
-17 -5 0 9 9 8 17 22 17 31 0 9 7 16 15 16 8 0 15 -4 15 -10 0 -5 5 -10 10
-10 6 0 10 8 10 18 1 16 1 16 11 -1 6 -10 9 -41 7 -68z m-295 56 c-3 -9 -8
-14 -10 -11 -3 3 -2 9 2 15 9 16 15 13 8 -4z m182 -20 c-31 -26 -55 -32 -55
-15 0 10 15 14 34 11 5 -1 4 5 -4 13 -11 14 -8 16 21 16 l34 -1 -30 -24z m404
-8 c0 -12 -3 -16 -6 -9 -2 6 -9 10 -14 6 -5 -3 -9 0 -9 5 0 6 5 11 11 11 5 0
7 5 3 12 -4 7 -3 8 4 4 7 -4 12 -17 11 -29z m-852 -43 c0 -11 -25 -14 -139
-14 -119 0 -138 2 -138 16 0 11 6 14 20 9 11 -3 20 -3 20 2 0 4 53 7 118 5 95
-3 119 -6 119 -18z m843 11 c5 3 10 -1 10 -9 0 -12 -23 -15 -140 -18 -127 -3
-140 -1 -140 14 0 15 14 18 118 20 64 2 122 -1 129 -5 7 -5 17 -6 23 -2z
m-686 -15 c7 -7 0 -10 -21 -10 -31 0 -48 11 -37 23 8 8 45 0 58 -13z m-101
-37 c104 -6 107 -7 107 -30 l0 -23 -220 0 -220 0 0 30 0 30 113 0 c63 0 162
-3 220 -7z m187 -43 c0 -28 -3 -30 -35 -30 -32 0 -35 2 -35 30 0 28 3 30 35
30 32 0 35 -2 35 -30z m160 0 c0 -28 -3 -30 -35 -30 -32 0 -35 2 -35 30 0 28
3 30 35 30 32 0 35 -2 35 -30z m-221 -37 c51 -5 62 -9 58 -22 -3 -9 -10 -31
-15 -48 -7 -23 -7 -35 0 -39 7 -5 8 -2 4 7 -4 8 -1 6 7 -3 15 -19 28 -24 26
-10 -1 4 -1 13 0 20 2 19 48 -14 54 -38 4 -17 0 -20 -35 -20 -21 0 -37 4 -34
8 3 5 -1 9 -9 9 -8 0 -12 -4 -9 -9 3 -4 -110 -8 -250 -8 l-256 0 0 80 0 80
199 0 c109 0 226 -3 260 -7z m671 -73 l0 -80 -254 0 c-213 0 -256 2 -266 15
-7 8 -9 15 -6 15 4 0 -6 11 -21 25 -15 13 -23 25 -17 25 7 0 14 -6 17 -14 3
-7 14 -15 24 -18 14 -4 18 2 20 28 2 18 -2 36 -7 39 -6 3 -10 12 -10 20 0 18
37 21 303 23 l217 2 0 -80z m-533 25 c0 -10 -7 -13 -24 -9 -12 4 -23 2 -23 -3
0 -5 -7 -10 -15 -10 -23 0 -6 16 28 26 18 5 32 10 33 10 0 1 1 -6 1 -14z
m-717 -154 c0 -31 -1 -31 -51 -31 -47 0 -50 1 -44 23 l6 22 -17 -22 c-13 -19
-26 -23 -65 -23 -45 0 -49 2 -49 24 0 30 0 30 120 34 l100 3 0 -30z m72 -51
c18 1 321 2 674 1 l641 -1 18 -155 c10 -86 16 -158 13 -160 -3 -3 -15 65 -29
150 -13 85 -28 155 -32 155 -5 0 -7 -10 -4 -22 3 -13 22 -126 43 -253 21 -126
40 -232 43 -235 3 -3 7 -21 8 -40 1 -19 5 -46 8 -60 8 -42 155 -1253 154
-1275 -1 -18 -70 387 -265 1543 -32 188 -61 342 -64 342 -7 0 -5 -31 5 -90 3
-16 7 -43 10 -60 10 -58 14 -85 20 -115 3 -16 7 -43 10 -60 2 -16 7 -41 9 -55
5 -27 11 -62 21 -125 3 -22 8 -51 11 -65 8 -40 13 -72 19 -110 2 -19 7 -48 10
-65 6 -30 10 -57 20 -115 3 -16 7 -43 10 -60 3 -16 7 -43 10 -60 3 -16 7 -43
10 -60 3 -16 7 -43 10 -60 3 -16 7 -43 10 -60 3 -16 7 -43 10 -60 3 -16 7 -43
10 -60 3 -16 7 -43 10 -60 3 -16 7 -43 10 -60 3 -16 7 -43 10 -60 3 -16 7 -43
10 -60 3 -16 7 -43 10 -60 10 -61 14 -86 19 -110 3 -14 8 -41 11 -60 3 -19 8
-48 10 -65 12 -71 14 -82 20 -120 4 -22 8 -49 9 -60 6 -38 7 -40 16 -20 9 20
9 20 9 -1 1 -11 -4 -25 -9 -30 -12 -12 -2 -47 11 -38 5 3 9 -4 9 -16 0 -14 -4
-19 -12 -14 -8 5 -9 2 -3 -12 4 -10 8 -30 8 -43 -1 -18 1 -21 8 -10 6 9 8 0 5
-28 -3 -24 -1 -45 4 -48 5 -3 9 -18 8 -33 -1 -15 2 -39 6 -54 l8 -28 -211 0
c-210 0 -211 0 -216 23 -51 218 -59 283 -59 497 0 201 2 226 32 384 17 92 30
172 27 176 -3 5 -1 11 4 15 6 3 10 65 10 140 1 129 0 135 -20 135 -12 0 -18
-4 -13 -11 9 -15 11 -89 3 -89 -3 0 -4 -11 -1 -25 4 -23 1 -25 -32 -25 l-36 0
0 69 c0 68 1 70 28 74 15 2 -3 5 -39 6 -60 1 -70 -2 -96 -26 -18 -18 -38 -54
-52 -96 -27 -82 -41 -97 -89 -97 -20 0 -135 -2 -255 -3 -148 -1 -225 2 -239 9
-14 7 -31 38 -48 85 -16 46 -31 73 -39 71 -7 -1 -11 3 -8 10 9 28 -45 48 -130
48 l-83 0 0 -125 c0 -100 7 -165 35 -320 52 -288 55 -522 10 -750 -7 -38 -16
-88 -20 -110 -4 -22 -8 -47 -9 -55 -2 -13 -37 -16 -217 -20 l-214 -6 211 -2
212 -2 4 -25 c3 -13 3 -27 0 -30 -3 -3 -38 -5 -78 -5 -61 0 -73 3 -77 18 -3 9
-5 -67 -6 -170 0 -103 -4 -189 -8 -191 -5 -3 -7 79 -6 181 1 103 0 181 -3 175
-4 -9 -36 -13 -110 -13 l-104 0 -20 32 c-10 17 -16 36 -13 41 3 6 7 20 9 31 7
64 28 192 40 256 2 14 7 36 9 50 2 14 7 36 9 50 5 27 12 64 21 120 3 19 7 46
10 60 2 14 7 41 10 60 3 19 7 46 10 60 2 14 7 40 9 58 3 17 8 47 11 65 3 17 8
46 10 62 3 17 8 44 10 60 3 17 7 41 10 55 7 42 14 83 20 125 13 83 23 146 31
185 6 33 13 74 18 108 6 40 16 103 22 132 2 14 6 36 8 50 6 39 17 102 22 130
5 24 9 49 18 100 2 14 7 43 11 65 18 101 23 131 30 179 3 22 8 53 11 70 4 17
8 40 10 51 6 38 14 90 18 117 3 15 7 36 11 47 3 11 2 22 -3 25 -5 3 -14 -23
-20 -57 -5 -34 -77 -458 -158 -942 -81 -484 -149 -882 -151 -885 -2 -2 -8 1
-12 8 -5 8 -13 -33 -21 -95 -7 -59 -14 -117 -16 -128 -2 -11 -6 -47 -9 -80 -3
-33 -11 -96 -17 -140 -7 -44 -11 -83 -10 -87 1 -4 -5 -5 -13 -2 -19 8 -20 13
11 -76 14 -41 27 -82 29 -90 2 -8 14 -46 26 -85 13 -38 24 -74 25 -80 6 -37
18 -75 24 -75 3 0 7 -6 8 -12 1 -20 10 -57 16 -67 4 -5 2 -19 -2 -32 -8 -22
-10 -21 -35 22 -14 24 -50 124 -81 221 -55 175 -65 213 -71 273 -3 26 268
2355 280 2411 4 16 11 19 38 16 l33 -4 -11 -94 c-6 -52 -7 -94 -3 -94 4 0 9 8
9 18 1 9 3 28 5 42 1 14 5 45 7 70 3 25 6 48 6 53 1 4 10 7 22 7 13 0 18 4 13
13 -6 8 -3 8 9 -1 9 -8 31 -13 49 -12z m1407 -102 c17 -152 69 -585 86 -723 9
-66 17 -138 19 -160 2 -22 13 -116 25 -210 23 -185 57 -478 66 -565 3 -30 8
-70 11 -89 3 -19 10 -71 15 -115 4 -45 15 -139 24 -211 30 -257 30 -239 4
-250 -13 -6 -23 -20 -24 -32 -2 -28 -10 -37 -24 -29 -11 7 4 44 24 58 6 5 4 8
-5 8 -13 0 -35 158 -135 1005 -66 553 -123 998 -127 988 -4 -10 -5 0 -2 22 3
22 -4 115 -15 207 -27 213 -28 198 12 198 l34 0 12 -102z m-52 -265 c-3 -10
-5 -4 -5 12 0 17 2 24 5 18 2 -7 2 -21 0 -30z m-1217 -723 c0 -56 -3 -70 -15
-70 -12 0 -15 14 -15 70 0 56 3 70 15 70 12 0 15 -14 15 -70z m78 61 c8 -5 38
-78 67 -162 120 -346 142 -395 213 -465 79 -79 154 -78 235 2 44 45 136 209
123 221 -3 3 -10 -7 -16 -23 -28 -73 -76 -153 -114 -191 -47 -46 -93 -64 -107
-42 -7 11 -9 10 -9 -4 0 -16 -3 -16 -37 -2 -51 20 -116 92 -152 168 -46 97
-47 103 -10 116 56 19 67 15 79 -31 23 -91 42 -138 71 -177 37 -52 65 -53 108
-6 17 19 29 35 26 35 -3 0 4 9 15 20 11 11 20 25 20 31 0 5 5 7 12 3 7 -4 8
-3 4 5 -5 7 5 36 20 66 28 53 30 54 64 49 l35 -6 64 189 c35 103 68 193 72
198 4 6 24 12 44 13 l35 3 1 -98 c1 -54 4 -88 6 -75 4 22 36 30 58 14 18 -12
19 -81 1 -88 -28 -11 -64 5 -69 29 -4 20 -4 20 -6 -4 -1 -22 5 -28 39 -38 33
-10 40 -16 40 -36 0 -14 -3 -25 -7 -25 -5 0 -9 -15 -10 -33 -5 -66 -11 -112
-16 -127 -2 -8 -9 -33 -13 -55 -9 -38 -11 -40 -48 -40 -45 0 -53 -14 -55 -91
-1 -44 9 -54 54 -54 17 0 24 -7 27 -28 6 -43 0 -52 -38 -52 -33 0 -34 1 -36
43 l-1 42 -4 -42 -4 -43 -385 0 -384 0 -1 43 c-1 23 0 55 1 71 1 15 -3 56 -10
90 -6 33 -24 138 -40 231 -16 94 -29 160 -29 148 -1 -13 -7 -23 -14 -23 -15 0
-36 57 -29 78 6 20 30 13 35 -10 2 -13 5 21 6 75 l1 97 28 0 c15 0 33 -4 40
-9z m82 -142 c22 -59 46 -79 99 -79 24 0 31 -6 45 -44 28 -73 28 -86 0 -96
-73 -28 -67 -35 -121 122 -54 152 -71 209 -53 173 5 -11 19 -45 30 -76z m614
-78 c-52 -149 -59 -161 -78 -155 -12 3 -28 13 -36 21 -12 12 -12 14 -1 8 11
-6 13 -4 8 9 -4 9 -3 15 2 12 4 -3 13 19 20 49 9 41 17 55 30 55 28 0 59 42
82 109 12 34 23 60 25 58 2 -2 -21 -77 -52 -166z m-435 -49 l-1 -37 -12 35
c-14 36 -12 55 5 45 5 -4 9 -23 8 -43z m181 36 c0 -10 2 -10 8 -2 4 7 7 -44 7
-112 0 -68 -4 -124 -9 -124 -4 0 -2 -8 5 -17 12 -15 12 -16 -1 -8 -10 6 -9 2
3 -12 12 -14 15 -23 8 -28 -6 -3 -11 -14 -11 -24 0 -28 -45 -64 -70 -56 -47
15 -100 181 -100 312 l0 83 80 0 c57 0 80 -4 80 -12z m-479 -180 c21 -129 21
-165 0 -142 -5 5 -17 54 -26 109 -9 55 -19 107 -22 115 -10 25 -9 75 2 82 14
10 19 -9 46 -164z m-663 -525 l2 -473 -300 0 -300 0 0 475 0 475 298 -2 297
-3 3 -472z m2790 0 l2 -473 -302 -2 -303 -3 248 -2 247 -3 0 -30 0 -30 -262
-2 -263 -3 315 -5 315 -5 3 -297 2 -298 -380 0 c-209 0 -380 3 -380 6 0 3 34
117 75 253 76 251 87 309 60 331 -11 9 -12 16 -5 25 5 6 7 15 3 18 -3 4 1 7 9
7 10 0 16 9 16 23 1 688 3 955 9 960 3 4 137 6 297 5 l291 -3 3 -472z m-2094
330 c10 -61 7 -83 -9 -83 -15 0 -18 9 -16 47 1 11 -2 24 -7 27 -14 8 -3 46 13
46 7 0 15 -17 19 -37z m860 24 c16 -12 18 -20 10 -63 -9 -50 -11 -51 -64 -45
-11 1 -13 43 -4 90 7 34 28 40 58 18z m-855 -254 c1 -101 -2 -124 -12 -114 -7
7 -12 42 -13 90 -1 43 -4 83 -8 89 -3 6 -4 17 -1 26 3 9 7 23 10 32 13 43 24
-9 24 -123z m781 -103 l0 -140 -340 -2 c-187 -1 -359 -2 -382 -3 l-43 0 -3 48
c-3 44 -5 47 -20 36 -9 -8 -14 -9 -10 -5 4 5 3 15 -3 22 -8 10 -6 12 10 9 20
-4 21 0 21 86 l0 89 385 0 385 0 0 -140z m78 128 c5 -7 8 -38 6 -68 -5 -57
-21 -80 -56 -80 -16 0 -18 9 -18 80 l0 80 29 0 c16 0 33 -6 39 -12z m-1398
-125 c-11 -17 -11 -17 -6 0 3 10 7 26 7 35 1 15 2 15 6 0 2 -10 -1 -25 -7 -35z
m1867 5 c-3 -7 -5 -2 -5 12 0 14 2 19 5 13 2 -7 2 -19 0 -25z m-466 -47 c12
-92 -2 -151 -36 -151 -20 0 -22 7 -30 87 -7 70 -6 71 17 75 25 4 48 -1 49 -11z
m606 -253 c-3 -8 -6 -5 -6 6 -1 11 2 17 5 13 3 -3 4 -12 1 -19z m10 -80 c-3
-8 -6 -5 -6 6 -1 11 2 17 5 13 3 -3 4 -12 1 -19z m-97 -66 c0 -4 -7 -18 -16
-30 -14 -20 -23 -22 -120 -22 -86 0 -104 3 -104 15 0 20 -17 19 -28 0 -12 -23
-159 -18 -153 5 2 8 4 21 4 28 0 9 49 12 209 12 114 0 208 -3 208 -8z m-253
-84 c-2 -13 -4 -5 -4 17 -1 22 1 32 4 23 2 -10 2 -28 0 -40z m-2347 12 c0 -27
-3 -30 -30 -30 -27 0 -30 3 -30 30 0 27 3 30 30 30 27 0 30 -3 30 -30z m524
19 c-3 -6 -2 -14 3 -18 15 -9 26 -51 14 -51 -25 0 -1 -126 68 -348 39 -129 71
-236 71 -238 0 -2 -171 -4 -380 -4 l-380 0 0 300 0 300 313 2 312 3 -257 2
-258 3 0 30 0 30 251 0 c181 0 248 -3 243 -11z m2693 -36 c-3 -10 -5 -2 -5 17
0 19 2 27 5 18 2 -10 2 -26 0 -35z m73 17 c0 -27 -3 -30 -30 -30 -27 0 -30 3
-30 30 0 27 3 30 30 30 27 0 30 -3 30 -30z m-3273 -17 c-3 -10 -5 -4 -5 12 0
17 2 24 5 18 2 -7 2 -21 0 -30z m2426 20 c-7 -2 -13 -11 -13 -19 0 -23 -57
-18 -63 6 -5 18 0 20 41 19 26 0 41 -3 35 -6z m-1673 -18 c0 -13 -10 -16 -49
-14 -36 2 -48 6 -44 16 8 20 93 18 93 -2z m17 -7 c-3 -8 -6 -5 -6 6 -1 11 2
17 5 13 3 -3 4 -12 1 -19z m70 7 c0 -10 -10 -15 -29 -15 -18 0 -28 5 -28 15 0
10 10 15 28 15 19 0 29 -5 29 -15z m219 1 c8 -20 65 -41 152 -56 l72 -13 0
-84 0 -83 -90 0 -90 0 -1 -212 c0 -117 -3 -207 -6 -200 -2 6 -10 9 -15 6 -6
-4 -8 -3 -5 3 7 11 -147 246 -155 237 -3 -3 -5 3 -4 13 0 10 -4 17 -10 16 -7
-1 -11 5 -10 15 0 9 -3 16 -9 15 -6 -1 -9 62 -7 178 l3 179 85 0 c64 0 86 -3
90 -14z m1256 -165 c2 -116 -1 -179 -7 -178 -5 1 -9 -6 -9 -15 1 -10 -3 -16
-10 -15 -6 1 -10 -6 -10 -15 1 -10 -3 -16 -10 -15 -6 1 -10 -6 -10 -15 1 -10
-3 -16 -10 -15 -6 1 -10 -6 -10 -15 1 -10 -3 -16 -10 -15 -6 1 -10 -6 -10 -15
1 -10 -3 -16 -10 -15 -6 1 -10 -6 -10 -15 1 -10 -3 -16 -10 -15 -6 1 -10 -6
-10 -15 1 -10 -3 -16 -10 -15 -6 1 -10 -6 -10 -15 1 -10 -3 -16 -10 -15 -6 1
-10 -6 -10 -15 1 -10 -3 -16 -10 -15 -6 1 -10 -6 -10 -15 1 -10 -3 -16 -10
-15 -6 1 -10 -6 -10 -15 1 -10 -3 -16 -10 -15 -6 1 -10 -6 -10 -15 1 -10 -3
-16 -10 -15 -6 1 -10 -6 -10 -15 1 -10 -3 -16 -10 -15 -6 1 -10 -6 -10 -15 1
-10 -3 -16 -10 -15 -6 1 -10 -6 -9 -16 0 -10 -2 -16 -5 -13 -8 9 -82 -106 -75
-117 3 -6 1 -7 -5 -3 -5 3 -13 0 -15 -6 -3 -7 -6 181 -6 417 l-1 430 87 18
c89 19 143 40 143 57 0 6 36 10 85 10 l84 0 3 -179z m216 167 c-3 -7 -23 -14
-46 -16 -33 -2 -42 0 -42 12 0 12 11 16 46 16 32 0 44 -4 42 -12z m79 -13 c2
-1 -6 -19 -16 -41 -11 -21 -17 -42 -14 -46 2 -5 0 -8 -5 -8 -14 0 -23 28 -11
36 6 3 8 13 5 21 -3 8 -2 11 3 8 6 -3 6 7 1 25 -8 29 -8 29 13 19 12 -7 23
-13 24 -14z m-1262 -1110 c1 -24 -3 -31 -17 -30 -27 2 -32 12 -9 20 22 7 29
25 10 25 -5 0 -7 5 -3 12 4 7 3 8 -4 4 -6 -4 -9 -13 -5 -21 3 -8 0 -15 -6 -15
-6 0 -11 9 -11 19 0 41 -20 31 -22 -11 l-1 -43 -4 38 c-3 30 -65 130 -285 460
-282 424 -314 477 -322 519 -3 13 -5 24 -7 26 -1 1 -3 7 -4 12 -1 6 -3 11 -5
13 -1 1 -3 9 -5 18 -1 9 -6 27 -10 40 -4 13 155 -219 352 -516 274 -412 358
-547 358 -570z m-495 971 c0 -69 -4 -127 -9 -130 -5 -3 -8 2 -7 12 0 9 -4 16
-10 15 -7 -1 -11 5 -10 15 0 9 -4 16 -10 15 -7 -1 -11 5 -10 15 0 9 -4 16 -10
15 -7 -1 -11 5 -10 15 0 9 -4 16 -10 15 -7 -1 -11 5 -10 15 0 9 -4 16 -10 15
-7 -1 -11 5 -10 15 0 9 -4 16 -10 15 -7 -1 -11 5 -10 15 0 9 -4 16 -10 15 -7
-1 -11 5 -10 15 0 9 -5 16 -12 14 -8 -1 -11 2 -7 8 3 5 44 10 91 10 l84 0 0
-124z m1600 34 c-34 -50 -58 -95 -55 -101 4 -5 1 -8 -7 -7 -7 2 -12 -5 -12
-14 1 -10 -3 -16 -10 -15 -6 1 -10 -5 -10 -14 1 -9 -4 -16 -10 -16 -8 0 -10
39 -8 129 l3 128 85 0 85 0 -61 -90z m92 41 c-9 -27 -8 -30 15 -36 20 -5 23
-9 13 -20 -6 -8 -9 -19 -6 -24 4 -5 1 -13 -5 -17 -8 -5 -9 -3 -4 6 5 9 4 11
-4 6 -8 -5 -9 -12 -3 -19 5 -7 6 -21 1 -32 -4 -11 -8 -16 -8 -12 -1 5 -6 5
-12 1 -8 -4 -7 -9 2 -15 11 -7 11 -9 1 -9 -9 0 -11 -7 -7 -20 4 -12 2 -20 -5
-20 -7 0 -10 -7 -7 -15 8 -18 -17 -67 -29 -57 -4 4 -3 0 4 -10 10 -12 10 -18
1 -24 -8 -5 -9 -3 -4 6 5 9 4 11 -4 6 -9 -6 -9 -11 0 -22 9 -11 9 -14 0 -14
-7 0 -10 -4 -7 -8 2 -4 -4 -14 -15 -20 -17 -11 -20 -10 -17 5 2 10 8 22 13 26
6 5 4 7 -4 5 -13 -4 -18 -17 -23 -60 -1 -10 -5 -18 -9 -18 -4 0 -9 -14 -13
-32 -17 -85 -27 -108 -46 -108 -18 0 -20 7 -20 71 0 69 1 72 61 165 56 86 88
120 72 77 -3 -10 -3 -15 2 -11 4 4 9 18 9 30 1 13 5 29 9 35 10 16 47 123 47
136 0 14 -13 0 -16 -17 -6 -39 -39 -94 -310 -503 -243 -366 -294 -450 -296
-481 l-1 -37 -4 38 c-5 40 -22 51 -24 15 -1 -13 -1 -27 0 -33 0 -5 -10 -11
-24 -11 -31 -2 -31 3 -3 28 15 13 18 22 11 29 -8 8 -13 7 -18 -2 -5 -8 -4 -10
3 -5 17 10 15 1 -3 -14 -23 -19 -10 26 21 74 308 468 668 1005 672 1002 2 -3
0 -18 -6 -35z m-1184 -84 l3 -78 -33 3 -33 3 -1 70 c0 39 1 74 4 78 2 5 16 7
30 5 26 -3 27 -5 30 -81z m534 -366 c2 -247 0 -447 -4 -444 -8 4 -12 -12 -9
-30 1 -5 -3 -6 -9 -2 -9 5 -14 -6 -12 -26 1 -3 -6 -6 -14 -6 -19 0 -21 257 -1
258 10 0 10 2 0 6 -7 2 -13 18 -13 34 0 41 28 38 33 -3 4 -32 4 -32 5 5 2 32
-1 37 -19 37 -20 0 -21 4 -16 43 3 23 4 36 1 30 -4 -9 -28 -13 -70 -13 l-64 0
0 30 0 30 64 0 c53 0 65 -3 68 -17 2 -10 2 44 0 121 -4 109 -2 140 9 147 10 6
11 9 2 9 -8 0 -13 13 -13 30 0 42 27 40 33 -2 4 -32 4 -32 5 5 2 31 -1 37 -18
37 -18 0 -20 7 -20 78 0 43 3 82 7 85 3 4 17 7 29 7 l24 0 2 -449z m-82 362
l0 -73 -215 0 -215 0 0 73 0 72 215 0 215 0 0 -72z m-438 -105 c2 -13 1 -46 0
-75 l-4 -52 -81 -3 -82 -3 -2 -40 c-1 -31 0 -35 6 -15 6 23 12 25 63 26 32 1
64 4 73 8 9 3 13 2 10 -4 -3 -6 -1 -10 4 -10 7 0 11 -60 11 -180 l0 -180 -79
0 -80 0 -4 33 -4 32 -1 -37 -2 -36 80 -4 c44 -2 85 -1 90 0 6 2 10 101 10 258
0 196 3 254 13 255 6 0 60 1 119 2 l108 2 2 -120 2 -120 6 90 c4 51 6 -43 6
-215 1 -168 -2 -278 -6 -245 -7 68 -13 64 -10 -7 1 -34 -2 -48 -12 -48 -7 0
-79 -1 -160 -3 l-148 -4 -37 58 c-21 32 -41 55 -45 52 -5 -2 -8 -1 -7 4 3 20
-2 34 -11 28 -6 -4 -10 -3 -9 2 3 20 -2 34 -11 28 -6 -4 -10 -3 -9 2 3 20 -2
34 -11 28 -6 -4 -10 -3 -9 2 3 20 -2 34 -11 28 -6 -4 -10 -3 -9 2 3 20 -2 34
-11 28 -6 -4 -10 -3 -9 2 4 22 -2 34 -13 27 -10 -6 -10 -4 0 7 9 9 12 67 12
216 l0 203 129 0 c127 0 130 0 133 -22z m448 -18 l0 -30 -85 0 -85 0 0 30 0
30 85 0 85 0 0 -30z m-1031 -107 c60 -91 61 -93 61 -163 0 -68 -1 -71 -22 -68
-21 3 -28 17 -44 88 -5 23 -11 51 -13 58 -1 1 -2 5 -3 10 0 4 -7 22 -15 40 -7
17 -11 32 -8 32 4 0 3 6 -2 13 -4 6 -8 15 -9 20 -1 4 -2 8 -4 10 -1 1 -3 9 -5
17 -2 8 -6 24 -11 35 -11 32 8 8 75 -92z m1023 -58 l0 -110 -56 -3 c-54 -3
-56 -2 -56 23 0 14 -4 25 -8 25 -5 0 -9 23 -9 52 -1 35 -6 55 -17 63 -9 7 -16
24 -16 39 l0 27 81 -3 81 -3 0 -110z m-141 -22 c1 -27 1 -77 0 -113 -1 -47 1
-61 9 -50 6 10 10 11 10 3 0 -9 19 -13 59 -13 50 0 59 -3 64 -20 5 -18 0 -20
-54 -20 -46 0 -59 3 -59 15 0 8 -7 15 -15 15 -8 0 -15 -5 -15 -11 0 -5 5 -7
10 -4 6 3 10 1 10 -4 0 -6 -4 -11 -10 -11 -6 0 -10 -27 -9 -62 0 -35 3 -57 6
-50 3 8 27 12 69 12 l64 0 0 -129 0 -130 -116 -3 c-64 -2 -160 -2 -215 0 l-99
3 0 34 0 35 135 0 135 0 0 275 c0 177 4 275 10 275 6 0 11 -21 11 -47z m-804
-140 c-2 -21 -4 -4 -4 37 0 41 2 58 4 38 2 -21 2 -55 0 -75z m234 -308 l-2
-55 39 0 c35 0 42 -5 66 -40 14 -22 26 -42 26 -45 0 -3 -20 -5 -45 -5 -25 0
-45 -4 -45 -10 0 -5 -17 -11 -37 -11 l-38 -2 40 -7 40 -7 -38 -2 c-33 -1 -37
-4 -32 -20 8 -27 -15 -38 -33 -15 -9 12 -13 14 -9 4 4 -13 -5 -16 -43 -18
l-47 -2 -27 93 c-15 50 -29 100 -32 110 -10 41 -15 63 -19 82 -2 11 -6 30 -9
43 -3 12 -8 31 -11 42 -3 11 -7 29 -10 40 -3 11 -7 29 -9 40 -3 11 -7 24 -11
29 -7 12 14 25 40 26 17 0 20 8 23 59 l3 60 111 -168 c111 -166 112 -167 109
-221z m1236 270 c12 0 25 -4 28 -7 4 -4 -7 -64 -25 -135 -17 -70 -33 -140 -35
-155 -2 -15 -6 -36 -10 -47 -3 -11 -8 -30 -11 -43 -8 -38 -12 -53 -14 -55 -2
-2 -3 -7 -4 -12 0 -5 -4 -12 -8 -16 -4 -4 -4 -13 -2 -20 4 -11 -11 -13 -70
-13 -62 1 -76 4 -77 17 -1 13 -2 13 -6 -1 -3 -14 -9 -16 -22 -8 -10 5 -20 7
-23 5 -3 -3 -5 2 -5 10 0 23 94 21 99 -2 3 -11 6 -5 9 15 l6 32 -59 0 c-32 0
-58 4 -58 10 0 6 -21 10 -46 10 -25 0 -44 4 -42 9 2 5 80 124 173 264 l170
255 5 -56 c4 -50 8 -57 27 -57z m-517 -85 l0 -30 -64 0 c-70 0 -78 5 -69 38 5
20 12 22 69 22 l64 0 0 -30z m-676 -190 l26 -40 -30 0 c-28 0 -30 2 -30 40 0
22 2 40 4 40 2 0 15 -18 30 -40z m216 -87 c0 -20 -1 -34 -3 -32 -2 2 -14 19
-26 37 l-22 32 25 0 c23 0 26 -4 26 -37z m232 -85 l1 -33 4 33 4 32 105 0 104
0 0 -30 0 -29 -102 -3 c-57 -2 -156 -2 -220 0 -115 3 -118 4 -118 26 0 12 3
26 7 29 3 4 53 7 110 7 l103 0 2 -32z m-334 -20 l3 -38 -55 0 -56 0 0 41 0 40
53 -3 52 -3 3 -37z m782 2 l0 -40 -55 0 -55 0 0 33 c0 44 4 47 62 47 l48 0 0
-40z m-905 -10 c-3 -5 -14 -14 -24 -20 -15 -7 -20 -5 -24 10 -4 17 0 20 25 20
17 0 27 -4 23 -10z m567 -27 c-62 -2 -161 -2 -220 0 -59 1 -8 3 113 3 121 0
169 -2 107 -3z m-142 -68 l0 -35 -317 -3 -318 -3 343 1 c188 0 342 -3 342 -7
0 -5 45 -8 100 -8 l100 0 0 -145 c0 -135 -1 -145 -19 -145 -13 0 -18 7 -17 23
1 12 7 21 14 20 7 -2 12 2 12 7 0 6 -7 10 -15 10 -12 0 -15 15 -16 68 -1 52
-3 60 -9 37 -6 -23 -8 -16 -9 35 0 45 2 60 9 50 8 -13 10 -13 10 2 0 19 -16
33 -24 20 -2 -4 -6 -56 -8 -114 -2 -58 -6 -104 -11 -101 -13 8 -47 -8 -47 -23
0 -8 5 -12 10 -9 6 3 10 1 10 -4 0 -7 -29 -11 -75 -11 l-75 0 0 30 c0 20 -5
30 -15 30 -27 0 -30 -5 -27 -37 l4 -33 -66 0 c-77 0 -69 -19 -66 173 l2 117
-61 0 -61 0 -1 -62 c-1 -35 -3 -55 -6 -46 -2 10 -15 21 -29 24 -16 4 -24 13
-24 28 1 21 1 21 21 -3 11 -13 22 -21 26 -17 7 7 -36 56 -49 56 -4 0 -9 -10
-9 -22 -1 -15 -4 -11 -9 12 -7 31 -7 32 -9 8 -1 -18 -7 -28 -16 -28 -8 0 -15
5 -15 10 0 6 -6 10 -14 10 -7 0 -19 7 -26 15 -9 11 -33 15 -84 15 -115 0 -143
8 -148 39 -4 25 -1 27 21 23 19 -4 23 -2 18 11 -5 14 26 16 324 17 l329 0 0
-35z m50 0 c0 -28 -15 -34 -24 -9 -10 25 -7 34 9 34 9 0 15 -9 15 -25z m710
-16 c0 -31 -1 -31 -38 -26 -20 4 -176 7 -345 7 -301 1 -307 2 -307 21 0 20 5
20 335 18 184 -1 338 1 342 4 11 12 13 8 13 -24z m-312 -65 c3 -16 1 -16 -7
-4 -8 12 -13 12 -23 2 -9 -9 -9 -12 0 -12 15 0 16 -26 2 -35 -18 -11 -32 6
-18 23 11 13 11 14 -1 7 -9 -5 -7 2 5 18 21 29 37 30 42 1z m60 1 c-20 -14
-39 -25 -42 -25 -4 0 -6 11 -6 25 0 23 4 25 42 25 l43 0 -37 -25z m160 16 c10
-6 3 -15 -26 -32 -90 -53 -310 -194 -310 -199 2 -50 -3 -60 -31 -60 -28 0 -29
2 -33 55 -1 30 1 55 6 55 5 0 17 6 25 14 9 8 22 16 30 18 7 2 25 13 39 26 15
13 32 20 41 17 8 -3 12 -3 8 1 -9 10 112 90 154 102 44 13 80 14 97 3z m-909
-83 c1 -27 -3 -48 -9 -48 -6 0 -9 29 -9 68 2 76 17 59 18 -20z m29 6 c-1 -91
-14 -86 -20 9 -3 47 0 67 8 67 8 0 12 -24 12 -76z m519 62 c-4 -9 -1 -13 7
-10 8 3 12 -7 13 -31 1 -19 -3 -33 -7 -30 -5 3 -12 0 -16 -6 -4 -7 -3 -9 4 -5
21 13 18 -9 -4 -32 l-23 -24 2 69 c1 37 6 71 12 75 15 11 18 10 12 -6z m50
-68 c-2 -18 -4 -6 -4 27 0 33 2 48 4 33 2 -15 2 -42 0 -60z m26 39 c2 -20 0
-37 -4 -37 -5 0 -9 19 -9 42 0 50 7 47 13 -5z m-718 -116 c3 -5 2 -12 -3 -15
-5 -3 -9 1 -9 9 0 17 3 19 12 6z m-27 -91 c4 0 8 -9 8 -20 0 -11 -4 -20 -8
-20 -4 0 -8 -22 -8 -50 0 -30 4 -50 11 -50 8 0 8 -4 2 -12 -12 -15 -18 -146
-7 -135 5 4 7 25 5 46 -2 38 11 62 24 41 16 -26 26 -5 24 53 -1 47 -7 68 -23
86 -11 13 -14 20 -6 16 13 -8 13 -7 1 8 -11 14 -11 20 0 34 12 15 12 16 -1 8
-10 -5 -8 -1 4 13 10 12 23 19 27 16 5 -3 9 -156 9 -340 0 -278 -2 -334 -14
-334 -8 0 -13 8 -12 18 1 11 -6 17 -19 17 -13 0 -20 -6 -19 -17 1 -13 -5 -18
-22 -18 -23 0 -24 2 -24 84 0 62 4 87 15 96 13 10 15 56 17 279 1 146 3 247 5
224 2 -24 7 -43 11 -43z m162 -5 l0 -75 -33 0 c-34 0 -34 0 -33 47 1 42 4 48
26 53 16 4 26 14 28 28 7 44 12 20 12 -53z m649 21 c-2 -53 -3 -55 -31 -54
-21 1 -28 6 -28 21 0 19 1 20 20 2 29 -26 24 -3 -5 25 l-25 23 -1 -39 c-2 -31
-3 -33 -6 -11 -3 16 -2 36 2 44 5 14 9 13 28 -6 32 -29 37 -27 37 14 0 19 2
35 6 35 3 0 4 -24 3 -54z m-22 24 c1 -16 -1 -17 -12 -7 -11 10 -8 19 10 27 1
0 1 -9 2 -20z m-769 -4 c-7 -8 -15 -12 -17 -11 -5 6 10 25 20 25 5 0 4 -6 -3
-14z m539 -18 c-3 -8 -6 -5 -6 6 -1 11 2 17 5 13 3 -3 4 -12 1 -19z m-1670
-20 c-3 -8 -6 -5 -6 6 -1 11 2 17 5 13 3 -3 4 -12 1 -19z m1830 -25 c-3 -10
-5 -2 -5 17 0 19 2 27 5 18 2 -10 2 -26 0 -35z m1190 25 c-3 -8 -6 -5 -6 6 -1
11 2 17 5 13 3 -3 4 -12 1 -19z m-2143 -10 c-5 -8 -2 -9 12 -3 55 23 119 11
107 -21 -4 -11 -8 -12 -20 -3 -17 15 -61 21 -68 10 -5 -10 -55 -2 -55 8 0 10
12 21 22 21 5 0 6 -5 2 -12z m763 -10 c-3 -8 -6 -5 -6 6 -1 11 2 17 5 13 3 -3
4 -12 1 -19z m471 13 c6 -1 12 -9 12 -18 0 -13 -3 -14 -12 -5 -15 15 -60 16
-75 1 -9 -9 -12 -7 -11 8 2 19 11 20 86 14z m42 -6 c10 -12 10 -15 -4 -15 -9
0 -16 7 -16 15 0 8 2 15 4 15 2 0 9 -7 16 -15z m-1120 -31 c0 -21 -4 -33 -10
-29 -5 3 -10 -2 -10 -12 0 -12 -8 -19 -20 -20 -15 -1 -19 4 -18 22 2 17 6 21
14 14 16 -13 23 -1 19 34 -2 18 1 27 11 27 9 0 14 -12 14 -36z m1374 15 c-6
-11 -24 -2 -24 11 0 5 7 7 15 4 8 -4 12 -10 9 -15z m-1902 -1 c-22 -22 -12
-32 11 -10 29 27 47 29 23 3 -11 -12 -15 -28 -11 -47 4 -23 3 -25 -4 -9 -9 19
-10 18 -10 -5 -1 -14 6 -36 15 -48 8 -12 11 -22 5 -22 -5 0 -13 5 -16 10 -4 6
-10 8 -15 5 -14 -9 -32 24 -32 59 0 38 17 76 34 76 9 0 9 -3 0 -12z m1565 -20
c-3 -8 -6 -5 -6 6 -1 11 2 17 5 13 3 -3 4 -12 1 -19z m-1349 -12 c3 -14 6 -16
12 -6 13 21 39 20 51 -2 8 -15 8 -23 -1 -32 -6 -6 -11 -6 -10 -1 4 19 0 35 -9
35 -9 0 -7 -43 3 -59 4 -6 14 -8 24 -5 16 5 16 5 0 -6 -22 -13 -55 1 -61 27
-2 10 -3 8 -2 -4 2 -21 -2 -23 -51 -23 -42 0 -55 4 -64 19 -25 48 -2 76 61 76
35 0 44 -4 47 -19z m162 14 c0 -5 -4 -10 -9 -10 -6 0 -13 5 -16 10 -3 6 1 10
9 10 9 0 16 -4 16 -10z m754 -17 c3 -15 6 -46 6 -68 1 -22 3 -53 4 -70 2 -16
4 -39 5 -51 1 -23 31 -29 31 -7 0 8 -4 11 -10 8 -13 -8 -13 8 1 22 5 5 11 24
11 42 1 23 6 31 20 31 20 0 20 8 18 -240 -1 -79 -2 -145 -3 -146 -3 -3 -169
-6 -243 -5 -50 1 -63 4 -66 19 -8 30 1 38 42 34 40 -4 40 -4 40 32 0 20 5 36
11 36 8 0 8 5 -1 15 -10 12 -9 15 4 15 10 0 14 -4 11 -10 -3 -5 0 -10 7 -10
10 0 10 -2 1 -8 -9 -5 -9 -19 -3 -47 5 -22 10 -43 10 -47 0 -5 -26 -9 -57 -10
l-58 -1 60 -6 c33 -3 61 -5 63 -5 9 4 7 61 -2 73 -8 10 -8 15 0 18 8 3 9 18 3
51 -17 91 -17 92 -49 92 -25 0 -30 4 -30 25 0 16 -6 25 -15 25 -9 0 -15 -9
-15 -25 0 -14 -4 -25 -10 -25 -5 0 -10 23 -10 50 0 39 -4 50 -16 50 -11 0 -15
-9 -14 -32 3 -51 1 -58 -15 -52 -9 4 -15 0 -15 -10 0 -9 6 -16 13 -16 18 0 17
-28 -1 -35 -9 -3 -12 0 -9 8 4 10 -3 12 -25 9 -25 -4 -29 -2 -26 14 2 11 11
18 21 18 9 -1 17 3 17 8 0 6 -11 7 -24 4 -28 -7 -33 8 -28 87 4 47 4 47 40 48
21 0 51 1 67 2 25 2 31 -2 32 -18 2 -66 4 -75 19 -75 12 0 14 9 12 43 l-3 42
90 6 90 5 -87 2 -88 2 0 54 0 53 84 2 84 2 6 -28z m86 -29 c0 -38 -3 -45 -17
-42 -22 4 -27 35 -13 72 14 39 30 23 30 -30z m514 50 c8 -3 12 -12 9 -20 -3
-8 0 -14 6 -14 6 0 11 8 12 18 1 9 6 2 11 -15 8 -25 8 -36 -2 -48 -7 -9 -15
-13 -18 -10 -3 3 -11 0 -19 -7 -10 -8 -17 -8 -25 0 -12 12 -1 35 14 26 6 -4 5
-10 -3 -15 -10 -6 -10 -9 -2 -9 16 0 26 17 13 25 -5 3 -7 19 -3 36 5 25 3 28
-12 22 -13 -4 -16 -3 -11 5 8 14 9 14 30 6z m-824 -49 l0 -45 -59 0 c-53 0
-59 2 -63 23 -2 12 -2 32 0 45 3 20 9 22 63 22 l59 0 0 -45z m417 -7 c-2 -13
-4 -5 -4 17 -1 22 1 32 4 23 2 -10 2 -28 0 -40z m43 44 c0 -4 -5 -13 -12 -20
-8 -8 -8 -15 0 -25 9 -11 8 -14 -3 -14 -9 0 -15 10 -15 24 0 13 5 23 11 23 5
0 7 5 4 10 -3 6 -1 10 4 10 6 0 11 -4 11 -8z m167 -19 c-3 -32 -16 -38 -42
-18 -18 13 -18 14 -2 15 9 0 17 5 17 11 0 5 5 7 10 4 6 -3 10 -1 10 4 0 6 2
11 4 11 3 0 4 -12 3 -27z m149 -12 c-7 -36 -19 -51 -43 -51 -15 0 -22 4 -18
11 4 6 13 8 21 5 8 -3 14 -1 14 3 0 5 -6 11 -12 13 -10 4 -10 10 0 32 10 23
15 26 27 16 8 -7 13 -19 11 -29z m-1342 7 c-5 -7 -1 -7 11 -1 19 11 65 5 65
-8 0 -14 -40 -10 -41 4 0 10 -2 10 -6 0 -2 -7 -11 -13 -19 -13 -9 0 -12 -4 -9
-10 3 -5 1 -10 -4 -10 -6 0 -11 5 -11 11 0 5 -4 8 -9 5 -5 -4 -4 5 2 18 7 13
15 22 19 19 5 -2 5 -9 2 -15z m304 -59 c2 -45 1 -50 -12 -39 -16 12 -17 35 -3
57 6 9 3 11 -7 7 -13 -5 -16 1 -16 26 0 31 1 32 18 17 11 -10 18 -34 20 -68z
m655 68 c3 -9 -5 -12 -29 -9 -19 2 -34 8 -34 13 0 14 57 10 63 -4z m97 -19 c0
-30 -1 -31 -17 -16 -13 14 -14 20 -3 32 18 22 20 20 20 -16z m70 8 c0 -13 6
-27 13 -29 7 -4 6 -6 -5 -6 -23 -1 -48 9 -48 21 0 5 5 6 10 3 6 -3 10 -1 10 4
0 6 -6 11 -12 11 -9 0 -8 4 2 10 23 15 30 12 30 -14z m432 6 c3 -10 1 -28 -3
-40 -7 -19 -16 -22 -59 -22 l-50 0 4 33 c2 17 4 35 5 39 0 3 23 6 50 6 38 1
50 -3 53 -16z m-1955 -24 c-3 -7 -5 -2 -5 12 0 14 2 19 5 13 2 -7 2 -19 0 -25z
m490 0 c-3 -7 -5 -2 -5 12 0 14 2 19 5 13 2 -7 2 -19 0 -25z m1176 22 c9 0 17
-5 17 -11 0 -7 -10 -9 -25 -7 -14 3 -25 1 -25 -3 0 -18 -18 -8 -23 12 -5 18
-2 20 16 15 12 -3 30 -6 40 -6z m-1156 -22 c-3 -8 -6 -5 -6 6 -1 11 2 17 5 13
3 -3 4 -12 1 -19z m2027 -14 c-4 -41 -14 -41 -14 0 0 20 4 35 9 32 4 -3 7 -17
5 -32z m-2877 -6 c-3 -8 -6 -5 -6 6 -1 11 2 17 5 13 3 -3 4 -12 1 -19z m1165
-51 c3 -66 1 -73 -14 -69 -10 2 -29 1 -43 -2 l-25 -6 -2 -188 -3 -187 -2 188
c-3 142 0 191 9 201 8 7 13 37 13 74 l-1 62 32 0 32 0 4 -73z m528 63 c0 -5
-13 -10 -30 -10 -16 0 -30 5 -30 10 0 6 14 10 30 10 17 0 30 -4 30 -10z m-920
-20 c0 -5 -7 -10 -16 -10 -8 0 -12 5 -9 10 3 6 10 10 16 10 5 0 9 -4 9 -10z
m947 -382 c-1 -73 -3 -16 -3 127 0 143 2 203 3 133 2 -70 2 -187 0 -260z m49
365 c9 -14 10 -21 1 -32 -10 -12 -9 -13 3 -6 8 4 4 -4 -9 -18 l-24 -27 23 -25
c13 -14 27 -25 32 -25 4 0 8 23 8 50 0 28 -4 50 -8 50 -4 0 -8 9 -8 20 0 11 5
19 11 17 6 -2 10 -57 11 -143 1 -103 -1 -123 -6 -76 -5 46 -13 69 -31 88 l-24
26 -6 -49 c-6 -47 -6 -46 -7 18 -2 49 2 68 12 72 11 4 12 14 6 41 -9 40 -4 45
16 19z m-1131 -14 c-8 -12 -35 -12 -35 0 0 11 22 20 33 14 4 -2 5 -9 2 -14z
m1055 -29 c0 -49 -1 -50 -30 -50 -29 0 -30 1 -30 50 0 49 1 50 30 50 29 0 30
-1 30 -50z m47 3 c-3 -10 -5 -4 -5 12 0 17 2 24 5 18 2 -7 2 -21 0 -30z m1137
-13 c-5 -5 -10 3 -11 18 -1 22 0 24 9 8 6 -10 6 -22 2 -26z m-2987 -2 c-3 -7
-5 -2 -5 12 0 14 2 19 5 13 2 -7 2 -19 0 -25z m3020 10 c-3 -8 -6 -5 -6 6 -1
11 2 17 5 13 3 -3 4 -12 1 -19z m-1117 -40 c0 -30 -1 -31 -16 -16 -14 14 -14
18 -3 32 19 21 19 21 19 -16z m-631 -203 c-1 -97 1 -179 5 -182 3 -3 6 6 6 20
0 26 3 27 50 27 33 0 50 -4 51 -12 0 -9 2 -9 6 1 5 11 7 11 14 0 6 -10 9 -11
9 -1 0 8 16 12 45 12 43 0 45 -1 45 -30 0 -29 -2 -30 -44 -30 -34 0 -46 4 -49
18 -3 10 -5 6 -6 -10 l-1 -28 160 0 160 0 0 -265 0 -265 -220 0 -220 0 0 265
0 265 50 0 c28 0 50 -4 50 -10 0 -5 8 -10 18 -9 10 0 12 3 5 6 -7 2 -14 19
-14 36 -1 18 -3 24 -6 15 -4 -15 -16 -18 -74 -18 -48 0 -69 4 -70 13 0 10 -2
10 -6 0 -16 -42 -23 7 -23 172 l0 185 30 0 31 0 -2 -175z m531 -10 c0 -165 -7
-214 -23 -172 -4 8 -6 7 -6 -3 -1 -13 -21 -15 -131 -12 l-130 3 0 30 0 29 105
0 c97 0 105 -1 105 -19 0 -11 5 -23 10 -26 7 -4 10 57 10 174 l0 181 30 0 30
0 0 -185z m79 151 c9 -10 8 -16 -4 -26 -13 -11 -15 -8 -15 14 0 30 3 32 19 12z
m-362 -80 c-4 -9 -12 -16 -18 -16 -8 0 -8 4 1 15 10 12 10 15 -1 15 -11 0 -11
2 1 10 11 7 11 10 2 10 -8 0 -10 5 -6 12 10 16 29 -26 21 -46z m368 34 c-3 -5
-1 -10 4 -10 21 0 12 -59 -10 -71 -15 -8 -19 -8 -15 0 4 6 0 14 -8 17 -9 3
-16 17 -16 31 0 13 4 22 9 19 5 -3 14 1 21 9 14 17 24 20 15 5z m-544 -90 c5
0 9 6 8 13 -4 28 2 44 16 44 10 0 15 -11 15 -34 0 -21 -5 -33 -14 -33 -7 0
-28 -3 -45 -6 -30 -6 -31 -5 -31 29 0 26 5 36 18 39 12 3 18 -4 20 -24 2 -16
8 -28 13 -28z m83 45 c-4 -8 -8 -15 -10 -15 -2 0 -4 7 -4 15 0 8 4 15 10 15 5
0 7 -7 4 -15z m24 -49 c10 13 32 16 32 5 0 -12 -37 -24 -49 -17 -5 4 -12 -2
-14 -11 -3 -11 -5 -6 -6 11 -1 25 1 27 15 15 9 -7 18 -9 22 -3z m483 -18 c15
-18 18 -40 19 -105 0 -81 -1 -83 -24 -83 -17 0 -23 5 -22 18 1 11 -6 17 -19
17 -13 0 -20 -6 -19 -17 1 -10 -4 -18 -12 -18 -11 0 -14 21 -14 99 l0 100 28
4 c15 2 31 5 35 6 5 0 17 -9 28 -21z m-557 -6 c3 -5 7 -21 10 -36 5 -30 -20
-49 -35 -25 -7 11 -9 10 -9 -5 0 -31 -12 -11 -17 30 -3 23 -1 34 5 30 6 -3 13
-2 17 4 7 12 22 13 29 2z m-67 -42 c-3 -11 -1 -23 4 -26 14 -8 10 -24 -6 -24
-15 0 -20 26 -9 54 9 23 17 20 11 -4z m-271 -19 c-18 -7 -18 -8 -3 -14 9 -3
17 -14 17 -23 0 -11 -5 -14 -16 -10 -9 3 -20 6 -25 6 -5 0 -9 9 -9 19 0 20 13
29 40 30 9 0 8 -3 -4 -8z m958 3 c17 -6 23 -44 7 -44 -5 0 -16 -3 -25 -6 -12
-5 -15 1 -13 25 2 32 5 35 31 25z m-594 -33 c0 -4 -11 -6 -25 -3 -14 2 -25 6
-25 8 0 2 11 4 25 4 14 0 25 -4 25 -9z m-366 -27 c26 -10 18 -24 -14 -24 -22
0 -28 4 -24 15 7 16 14 18 38 9z m222 -74 c12 0 14 -48 15 -297 1 -164 4 -287
6 -273 l4 25 109 -3 110 -3 2 -32 1 -32 4 33 4 32 109 0 c90 0 108 -3 104 -14
-3 -8 -1 -17 5 -21 8 -4 11 82 11 289 0 249 2 296 14 296 8 0 21 3 30 6 14 6
16 -24 16 -295 0 -263 -2 -300 -15 -295 -9 4 -15 0 -15 -10 0 -14 -17 -16
-127 -16 -71 0 -190 -2 -266 -3 -127 -2 -137 -1 -137 16 0 13 -5 17 -17 13
-17 -5 -18 12 -15 295 2 267 4 300 18 295 9 -3 22 -6 30 -6z m-66 -575 l0 -35
-405 0 c-343 0 -405 2 -405 14 0 8 -3 21 -6 30 -5 14 36 16 402 19 225 1 410
3 412 5 1 1 2 -14 2 -33z m1440 -6 c0 -18 4 -28 10 -24 6 3 10 17 10 31 0 13
4 24 10 24 5 0 175 -29 377 -65 202 -36 371 -65 375 -65 5 0 8 -15 8 -33 l0
-33 -382 67 -381 68 -415 1 c-228 0 -418 3 -422 5 -4 2 -5 17 -3 32 l5 28 404
-3 404 -2 0 -31z"/>
<path d="M1983 8115 l1 -30 89 2 c89 2 138 13 59 13 -35 0 -42 3 -42 20 0 11
-7 20 -15 20 -8 0 -15 -9 -15 -20 0 -16 -7 -20 -34 -20 -28 0 -35 4 -39 23 -3
15 -4 13 -4 -8z m101 -10 c3 -9 0 -15 -9 -15 -9 0 -12 6 -9 15 4 8 7 15 9 15
2 0 5 -7 9 -15z"/>
<path d="M1968 8063 c7 -3 16 -2 19 1 4 3 -2 6 -13 5 -11 0 -14 -3 -6 -6z"/>
<path d="M2068 8063 c7 -3 16 -2 19 1 4 3 -2 6 -13 5 -11 0 -14 -3 -6 -6z"/>
<path d="M1968 8043 c7 -3 16 -2 19 1 4 3 -2 6 -13 5 -11 0 -14 -3 -6 -6z"/>
<path d="M2068 8043 c7 -3 16 -2 19 1 4 3 -2 6 -13 5 -11 0 -14 -3 -6 -6z"/>
<path d="M1961 7936 c1 -66 5 -96 14 -100 10 -3 13 20 14 95 2 84 -1 99 -14
99 -14 0 -16 -14 -14 -94z m16 -18 c-2 -13 -4 -5 -4 17 -1 22 1 32 4 23 2 -10
2 -28 0 -40z"/>
<path d="M2061 7958 c0 -50 3 -68 9 -58 6 9 10 10 10 3 0 -6 -4 -14 -9 -18
-13 -8 -9 -43 5 -49 8 -3 12 23 13 95 2 80 -1 99 -13 99 -11 0 -14 -16 -15
-72z"/>
<path d="M2242 7671 c2 -11 14 -16 38 -16 24 0 36 5 38 16 2 13 -6 16 -38 16
-32 0 -40 -3 -38 -16z"/>
<path d="M2330 7674 c0 -19 19 -27 34 -14 11 8 15 8 18 -1 5 -15 28 -3 28 15
0 9 -14 13 -40 13 -26 0 -40 -4 -40 -13z"/>
<path d="M2334 8148 c-10 -16 6 -26 38 -24 21 1 34 7 36 18 2 13 -5 16 -33 15
-20 -1 -39 -5 -41 -9z"/>
<path d="M2050 7770 c0 -5 5 -10 11 -10 5 0 7 5 4 10 -3 6 -8 10 -11 10 -2 0
-4 -4 -4 -10z"/>
<path d="M2265 6330 c-3 -4 15 -10 40 -12 25 -2 40 1 35 6 -11 11 -69 16 -75
6z"/>
<path d="M2268 6303 c6 -2 18 -2 25 0 6 3 1 5 -13 5 -14 0 -19 -2 -12 -5z"/>
<path d="M2330 6295 c14 -7 30 -26 37 -42 8 -19 12 -22 13 -10 0 21 -43 67
-62 67 -7 -1 -2 -7 12 -15z"/>
<path d="M1294 6356 c1 -36 10 -47 19 -23 3 7 -1 23 -7 36 -12 22 -13 21 -12
-13z"/>
<path d="M1385 6179 c-19 -7 -18 -8 4 -8 18 -1 22 -5 18 -21 -4 -17 0 -20 23
-20 16 0 31 4 34 9 3 4 -6 6 -19 3 -20 -3 -25 0 -25 16 0 26 -9 32 -35 21z"/>
<path d="M1435 6180 c4 -6 10 -8 15 -5 4 3 11 -1 13 -7 3 -8 6 -6 6 5 1 11 -6
17 -20 17 -11 0 -17 -5 -14 -10z"/>
<path d="M1486 6181 c-4 -5 0 -12 6 -14 10 -4 10 -6 1 -6 -18 -1 -16 -18 2
-18 9 0 14 9 13 24 -2 24 -12 30 -22 14z"/>
<path d="M1310 6170 c-23 -7 -23 -8 -3 -9 12 -1 25 4 28 9 3 6 5 10 3 9 -2 -1
-14 -5 -28 -9z"/>
<path d="M1228 6153 c7 -3 16 -2 19 1 4 3 -2 6 -13 5 -11 0 -14 -3 -6 -6z"/>
<path d="M1158 6143 c7 -3 16 -2 19 1 4 3 -2 6 -13 5 -11 0 -14 -3 -6 -6z"/>
<path d="M1343 6123 c9 -2 25 -2 35 0 9 3 1 5 -18 5 -19 0 -27 -2 -17 -5z"/>
<path d="M1273 6113 c9 -2 25 -2 35 0 9 3 1 5 -18 5 -19 0 -27 -2 -17 -5z"/>
<path d="M1616 5731 c-4 -6 -9 -23 -11 -38 -2 -16 -6 -41 -9 -58 -3 -16 -7
-43 -10 -60 -7 -44 -17 -107 -20 -133 -2 -12 -7 -26 -11 -30 -4 -4 -4 3 -1 15
4 12 2 24 -4 28 -5 3 -10 -2 -10 -12 -1 -10 -9 -82 -18 -160 -12 -95 -14 -143
-7 -143 6 0 6 -3 -1 -8 -6 -4 -17 -54 -23 -112 -7 -58 -14 -118 -16 -135 -2
-16 -11 -88 -20 -160 -8 -71 -21 -177 -29 -235 -7 -58 -11 -107 -9 -109 7 -10
13 9 18 60 7 63 13 118 21 174 7 52 12 99 18 155 11 99 51 352 111 705 24 143
42 261 40 263 -1 2 -6 -1 -9 -7z m-56 -351 c0 -5 -4 -10 -10 -10 -5 0 -10 5
-10 10 0 6 5 10 10 10 6 0 10 -4 10 -10z m-19 -81 c-5 -13 -10 -19 -10 -12 -1
15 10 45 15 40 3 -2 0 -15 -5 -28z"/>
<path d="M2226 5724 c-10 -27 -7 -36 10 -30 13 5 14 3 7 -6 -15 -18 -12 -48 4
-48 7 0 13 5 13 10 0 6 -4 10 -10 10 -5 0 -10 5 -10 11 0 5 5 7 10 4 6 -3 10
4 11 17 l0 23 10 -23 c5 -13 7 -28 3 -33 -3 -5 1 -10 8 -10 7 -1 18 -2 23 -4
6 -1 16 -3 23 -3 17 -3 15 -19 -4 -26 -8 -3 -12 -2 -9 4 7 11 -8 14 -19 3 -11
-11 -50 -9 -58 2 -4 6 -8 0 -8 -13 0 -13 4 -20 10 -17 6 4 11 -14 12 -47 l1
-53 6 55 c3 30 9 54 14 53 4 -2 16 -3 27 -3 18 0 20 -7 20 -54 0 -61 -5 -66
-79 -69 l-41 -1 0 -64 c0 -48 3 -61 13 -56 8 6 8 3 -2 -9 -18 -23 -7 -47 23
-47 16 0 25 7 29 21 4 15 12 20 29 17 22 -3 23 -7 26 -105 l3 -103 -51 0 c-27
0 -50 -4 -50 -9 0 -5 9 -7 20 -4 11 3 58 2 104 -2 67 -5 84 -10 79 -21 -3 -8
-1 -14 4 -14 5 0 9 9 10 19 1 17 -7 21 -53 27 l-54 6 0 83 c0 79 1 84 22 87
27 4 36 31 37 116 1 55 -1 63 -16 61 -39 -3 -43 1 -43 50 0 32 5 53 15 61 12
10 15 29 13 78 -3 64 -4 65 -31 66 -19 1 -26 -2 -23 -11 3 -7 -2 -13 -10 -13
-9 0 -12 5 -8 12 5 8 2 9 -9 5 -9 -3 -19 -2 -22 3 -9 15 -22 12 -29 -6z m99
-44 c16 -18 16 -20 2 -20 -10 0 -17 6 -17 14 0 8 -6 17 -12 19 -8 3 -8 6 -2 6
6 1 19 -8 29 -19z m25 -221 c0 -6 7 -9 15 -5 12 4 15 -3 15 -29 0 -51 -28 -75
-90 -75 -27 0 -50 5 -50 10 0 6 -7 10 -15 10 -11 0 -15 12 -15 46 0 25 4 43 9
39 5 -3 12 -1 16 5 9 14 115 13 115 -1z m-110 -134 c11 -13 10 -14 -4 -9 -9 3
-16 10 -16 15 0 13 6 11 20 -6z m130 6 c0 -5 -7 -11 -14 -14 -10 -4 -13 -1 -9
9 6 15 23 19 23 5z"/>
<path d="M1550 5528 c0 -15 -3 -33 -6 -42 -3 -9 -2 -16 4 -16 13 0 22 62 11
75 -5 5 -9 -1 -9 -17z"/>
<path d="M2253 5215 c0 -44 2 -61 4 -37 2 23 2 59 0 80 -2 20 -4 1 -4 -43z"/>
<path d="M2170 5124 c-146 -14 -263 -49 -298 -89 -12 -14 -18 -25 -12 -25 5 0
14 8 19 18 6 10 11 12 11 4 0 -7 5 -10 10 -7 6 4 8 10 5 15 -3 5 3 14 14 19
33 18 184 51 233 51 26 0 50 5 53 10 3 6 5 9 3 8 -2 0 -19 -3 -38 -4z"/>
<path d="M2450 5110 c0 -5 5 -10 10 -10 6 0 10 5 10 10 0 6 -4 10 -10 10 -5 0
-10 -4 -10 -10z"/>
<path d="M2480 5109 c0 -5 9 -9 20 -9 11 0 20 -4 20 -8 0 -4 -17 -7 -37 -5
-38 3 -38 3 -8 -7 17 -5 51 -11 77 -12 27 -2 48 -6 48 -10 0 -5 6 -8 13 -8 7
0 22 -6 32 -14 22 -16 14 -16 -125 -3 l-65 6 65 -13 c116 -23 153 -37 182 -68
15 -16 25 -34 22 -39 -3 -5 0 -9 6 -9 7 0 10 19 8 55 -3 62 -19 82 -85 111
-49 20 -173 44 -173 33z m94 -28 c3 -4 -6 -6 -19 -3 -14 2 -25 6 -25 8 0 8 39
4 44 -5z"/>
<path d="M2155 5090 l-20 -9 20 0 c11 0 27 4 35 9 13 9 13 10 0 9 -8 0 -24 -4
-35 -9z"/>
<path d="M2263 5093 c15 -2 39 -2 55 0 15 2 2 4 -28 4 -30 0 -43 -2 -27 -4z"/>
<path d="M2351 5097 c10 -9 59 -17 59 -9 0 4 -14 9 -32 10 -18 2 -30 1 -27 -1z"/>
<path d="M2037 5080 c-20 -4 -40 -10 -43 -13 -7 -7 48 0 106 13 34 8 34 8 5 8
-16 0 -47 -4 -68 -8z"/>
<path d="M1945 5054 l-30 -13 30 6 c32 6 41 11 34 17 -2 2 -17 -2 -34 -10z"/>
<path d="M2120 5040 l-45 -7 42 -1 c23 -1 45 3 48 8 3 6 5 9 3 8 -2 0 -23 -4
-48 -8z"/>
<path d="M2193 5043 c9 -2 25 -2 35 0 9 3 1 5 -18 5 -19 0 -27 -2 -17 -5z"/>
<path d="M2263 5043 c9 -2 25 -2 35 0 9 3 1 5 -18 5 -19 0 -27 -2 -17 -5z"/>
<path d="M2333 5043 c9 -2 25 -2 35 0 9 3 1 5 -18 5 -19 0 -27 -2 -17 -5z"/>
<path d="M2409 5039 c16 -6 28 -6 35 1 7 7 -1 10 -24 9 -33 0 -34 -1 -11 -10z"/>
<path d="M1981 5019 c-18 -6 -31 -12 -29 -14 2 -3 24 1 49 9 49 16 33 20 -20
5z"/>
<path d="M2167 5003 c-10 -3 -14 -10 -11 -16 5 -8 2 -8 -7 1 -7 6 -18 12 -23
12 -6 0 -4 -5 4 -10 13 -8 13 -10 -2 -10 -9 0 -18 4 -20 9 -5 14 -111 -10
-126 -28 -8 -9 -11 -11 -8 -4 10 20 -40 0 -72 -29 -17 -14 -33 -24 -36 -21
-15 15 -3 44 27 68 l32 26 -32 -15 c-29 -15 -32 -14 -36 2 -3 9 -5 -4 -6 -30
-1 -29 5 -52 14 -62 45 -44 202 -88 235 -65 13 9 13 10 0 7 -8 -1 -41 2 -72 6
-54 7 -57 9 -45 27 10 16 19 19 50 14 24 -5 37 -3 37 4 0 6 -13 11 -30 11 -16
0 -30 5 -30 11 0 7 10 9 25 7 16 -4 25 -1 25 8 0 9 19 13 68 13 88 0 100 -4
95 -33 -3 -15 1 -25 11 -29 9 -4 15 -1 13 5 -1 7 16 15 41 18 42 6 46 -3 7
-14 -11 -3 -5 -4 13 -2 20 2 31 -2 29 -8 -2 -6 3 -16 12 -23 14 -11 14 -13 -4
-14 -56 -3 -100 4 -112 19 -7 10 -13 13 -12 7 3 -26 -4 -30 -52 -26 -34 2 -49
0 -45 -7 8 -13 190 -13 224 -1 12 5 22 16 22 24 0 9 -4 13 -10 10 -5 -3 -10
-1 -10 4 0 6 5 11 10 11 6 0 10 7 10 15 0 11 12 15 45 15 57 0 59 -19 3 -22
l-43 -1 45 -6 c49 -7 112 -1 75 7 -45 10 -39 52 7 52 23 0 29 -4 24 -15 -4
-12 -2 -14 11 -6 12 7 30 3 64 -14 26 -13 48 -23 51 -22 2 1 -4 -6 -14 -15
-10 -9 -43 -20 -73 -23 -30 -4 -55 -11 -55 -16 0 -5 10 -7 23 -4 12 3 36 7 52
10 52 7 65 11 77 23 7 7 17 12 24 12 6 0 18 8 25 17 12 14 12 16 0 8 -11 -6
-13 -4 -8 7 6 16 -9 32 -51 56 -20 11 -26 11 -36 -3 -7 -10 -18 -14 -30 -9
-13 5 -15 9 -5 15 22 13 1 23 -47 24 -24 0 -44 3 -44 8 0 4 -5 7 -11 7 -5 0
-7 -4 -4 -10 3 -6 -4 -10 -17 -10 -19 0 -20 2 -8 11 12 8 8 10 -17 6 -18 -2
-35 1 -38 7 -3 7 -7 7 -11 -1 -3 -7 -15 -14 -27 -14 -42 -2 36 -17 97 -18 77
-1 69 -7 -19 -15 -38 -3 -71 -6 -72 -6 -2 0 -3 -4 -3 -10 0 -5 21 -7 50 -3 34
4 50 2 50 -6 0 -18 -99 -14 -106 4 -4 8 -10 15 -16 15 -5 0 -6 -5 -2 -11 3 -6
0 -15 -7 -20 -24 -15 -67 -10 -78 9 -6 9 -11 13 -11 9 0 -4 -10 -3 -21 4 -17
9 -19 13 -8 20 9 6 10 9 2 9 -6 0 -14 -3 -16 -7 -6 -10 -127 -4 -127 5 0 4 24
5 54 4 34 -2 67 2 88 11 18 8 40 18 48 20 19 7 -68 6 -93 0z m375 -32 c8 11 9
10 4 -3 -3 -11 2 -19 15 -23 11 -4 18 -9 15 -12 -8 -9 -56 26 -55 40 0 8 2 8
6 -2 5 -11 7 -11 15 0z m-522 -15 c0 -2 -7 -7 -16 -10 -8 -3 -12 -2 -9 4 6 10
25 14 25 6z m-73 -24 c-14 -3 -15 -7 -7 -17 8 -10 4 -14 -15 -17 -14 -3 -28
-2 -30 3 -8 12 46 50 59 42 7 -5 5 -9 -7 -11z m703 -2 c0 -5 -8 -7 -17 -4 -15
5 -16 4 -3 -5 11 -8 18 -7 26 4 8 11 13 12 22 3 19 -19 14 -33 -13 -33 -14 0
-25 3 -25 6 0 4 -12 10 -27 14 l-27 6 25 13 c25 13 39 12 39 -4z m-407 -25
c-3 -9 -8 -14 -10 -11 -3 3 -2 9 2 15 9 16 15 13 8 -4z m-273 -30 c-7 -8 -16
-12 -21 -9 -13 8 -1 24 18 24 13 0 13 -3 3 -15z"/>
<path d="M2323 5003 c9 -2 25 -2 35 0 9 3 1 5 -18 5 -19 0 -27 -2 -17 -5z"/>
<path d="M2243 4983 c9 -2 23 -2 30 0 6 3 -1 5 -18 5 -16 0 -22 -2 -12 -5z"/>
<path d="M2596 4965 c-3 -8 -1 -15 4 -15 6 0 10 7 10 15 0 8 -2 15 -4 15 -2 0
-6 -7 -10 -15z"/>
<path d="M2265 4960 c24 -10 61 -13 52 -3 -4 3 -22 7 -39 9 -26 2 -29 1 -13
-6z"/>
<path d="M2070 4919 c0 -5 9 -9 20 -9 11 0 20 2 20 4 0 2 -9 6 -20 9 -11 3
-20 1 -20 -4z"/>
<path d="M2120 4906 c0 -8 -10 -17 -22 -19 -13 -2 9 -4 47 -4 41 0 53 2 28 4
-24 2 -43 8 -43 13 0 5 19 11 43 13 l42 4 -47 1 c-36 2 -48 -2 -48 -12z"/>
<path d="M2488 4913 c7 -3 16 -2 19 1 4 3 -2 6 -13 5 -11 0 -14 -3 -6 -6z"/>
<path d="M2530 4890 c-11 -7 -5 -8 20 -4 43 8 51 14 19 14 -13 0 -31 -5 -39
-10z"/>
<path d="M2375 4830 c-4 -6 12 -10 39 -10 25 0 46 5 46 10 0 6 -18 10 -39 10
-22 0 -43 -4 -46 -10z"/>
<path d="M1408 4336 c-2 -20 -1 -36 3 -36 10 0 19 54 9 63 -4 5 -10 -7 -12
-27z"/>
<path d="M1378 4087 c-13 -111 -23 -204 -21 -206 7 -10 13 9 19 60 3 30 7 65
9 79 3 23 13 111 19 170 2 14 6 39 10 57 4 17 3 34 -2 37 -5 3 -20 -83 -34
-197z"/>
<path d="M2745 4458 c-9 -28 -46 -259 -43 -269 2 -5 15 55 29 135 22 131 27
170 14 134z"/>
<path d="M3147 2880 c-3 -11 -1 -20 4 -20 5 0 9 9 9 20 0 11 -2 20 -4 20 -2 0
-6 -9 -9 -20z"/>
<path d="M1903 2730 c0 -25 2 -35 4 -22 2 12 2 32 0 45 -2 12 -4 2 -4 -23z"/>
<path d="M2323 2675 c0 -27 2 -38 4 -22 2 15 2 37 0 50 -2 12 -4 0 -4 -28z"/>
<path d="M1902 2620 c0 -19 2 -27 5 -17 2 9 2 25 0 35 -3 9 -5 1 -5 -18z"/>
<path d="M2323 2580 c0 -25 2 -35 4 -22 2 12 2 32 0 45 -2 12 -4 2 -4 -23z"/>
<path d="M2323 2475 c0 -33 2 -45 4 -27 2 18 2 45 0 60 -2 15 -4 0 -4 -33z"/>
<path d="M2073 2400 c0 -25 2 -35 4 -22 2 12 2 32 0 45 -2 12 -4 2 -4 -23z"/>
<path d="M2072 2330 c0 -14 2 -19 5 -12 2 6 2 18 0 25 -3 6 -5 1 -5 -13z"/>
<path d="M1890 2155 c0 -9 9 -15 25 -15 16 0 25 6 25 15 0 9 -9 15 -25 15 -16
0 -25 -6 -25 -15z"/>
<path d="M2650 2155 c0 -9 9 -15 25 -15 16 0 25 6 25 15 0 9 -9 15 -25 15 -16
0 -25 -6 -25 -15z"/>
<path d="M1910 1972 c0 -5 9 -17 20 -27 20 -18 20 -17 20 8 0 20 -5 27 -20 27
-11 0 -20 -4 -20 -8z"/>
<path d="M2226 1971 c-10 -16 -4 -105 8 -120 8 -11 8 -13 -1 -7 -9 5 -13 0
-13 -13 0 -12 7 -21 15 -21 13 0 15 14 13 81 -2 76 -9 101 -22 80z"/>
<path d="M2212 1788 c7 -19 35 -21 35 -3 0 8 -9 15 -19 15 -11 0 -18 -5 -16
-12z"/>
<path d="M1939 1745 c-4 -25 -1 -87 4 -92 4 -3 7 17 7 45 0 29 -2 52 -5 52 -3
0 -5 -2 -6 -5z"/>
<path d="M1919 1507 c7 -9 11 -24 7 -32 -3 -8 -6 -19 -6 -23 -1 -4 -7 -14 -14
-22 -18 -21 -21 -130 -4 -141 24 -16 48 -10 48 11 0 11 -5 20 -11 20 -8 0 -8
4 0 13 8 10 7 17 -1 25 -9 9 -9 12 0 12 9 0 12 19 11 63 -2 53 -5 66 -23 77
-19 12 -20 12 -7 -3z m21 -93 c0 -22 -2 -25 -15 -14 -12 10 -13 16 -4 26 16
20 19 18 19 -12z m-15 -44 c-3 -5 -1 -12 5 -15 7 -4 8 -11 1 -18 -5 -7 -10
-15 -10 -19 -1 -5 -4 -7 -8 -5 -5 1 -9 21 -9 45 -1 34 1 40 12 31 8 -6 12 -15
9 -19z"/>
<path d="M1890 1226 c0 -11 9 -16 26 -16 31 0 28 23 -4 28 -15 2 -22 -2 -22
-12z"/>
<path d="M1270 1623 c0 -16 5 -35 10 -43 7 -11 10 -4 10 28 0 23 -4 42 -10 42
-5 0 -10 -12 -10 -27z"/>
<path d="M2449 1421 c9 -6 10 -11 2 -15 -17 -11 -13 -26 6 -19 12 5 14 3 8 -7
-5 -8 -4 -11 2 -7 16 10 3 57 -16 57 -13 0 -13 -2 -2 -9z"/>
<path d="M2441 1348 c-1 -21 4 -28 17 -28 11 0 13 3 6 8 -7 4 -14 16 -17 27
-4 15 -5 14 -6 -7z"/>
<path d="M3030 1621 c0 -6 4 -12 8 -15 5 -3 9 1 9 9 0 8 -4 15 -9 15 -4 0 -8
-4 -8 -9z"/>
<path d="M2651 1357 c-8 -11 -6 -18 11 -33 18 -15 20 -16 9 -2 -7 10 -11 25
-7 33 7 19 2 19 -13 2z"/>
<path d="M2657 1233 c-14 -13 -6 -23 18 -23 16 0 25 6 25 15 0 15 -31 21 -43
8z"/>
<path d="M2120 1230 c0 -5 5 -10 10 -10 6 0 10 5 10 10 0 6 -4 10 -10 10 -5 0
-10 -4 -10 -10z"/>
<path d="M4135 7135 c-127 -12 -237 -25 -244 -29 -13 -9 -11 -100 9 -330 8
-88 7 -101 -8 -113 -9 -7 -25 -13 -34 -13 -19 0 -24 -15 -9 -24 5 -4 11 -1 13
6 3 8 9 8 22 1 17 -9 16 -11 -8 -17 -36 -9 -33 -23 7 -22 l32 1 1 -55 c1 -30
5 -62 9 -71 3 -9 5 -34 3 -55 -2 -32 -7 -39 -30 -45 -17 -4 -28 -3 -28 3 0 6
-11 7 -26 4 -17 -5 -32 -2 -43 7 -21 19 -687 448 -724 466 -19 10 -26 20 -21
33 7 23 -21 25 -42 3 -10 -9 -11 -15 -4 -15 15 0 86 -49 181 -124 42 -34 99
-78 125 -98 27 -21 135 -105 241 -187 121 -95 193 -145 196 -137 3 7 -1 13 -7
13 -15 0 -87 55 -80 62 2 2 17 -5 32 -16 28 -20 86 -37 76 -22 -3 5 -12 9 -21
9 -18 0 -82 37 -101 60 -12 13 -13 13 -8 -3 5 -15 3 -16 -16 -6 -21 11 -21 12
-3 25 10 8 14 14 8 14 -7 0 -15 -5 -18 -11 -5 -6 -12 -4 -21 8 -7 10 -14 14
-14 9 0 -6 -7 -1 -15 10 -8 10 -15 15 -15 9 0 -6 -3 -6 -8 1 -4 5 -25 23 -47
39 -76 56 -265 206 -265 211 0 7 16 -3 210 -130 96 -63 217 -141 268 -173 54
-34 90 -63 88 -70 -3 -7 0 -15 6 -19 7 -4 8 -3 4 4 -4 7 -2 12 3 12 18 0 12
-18 -12 -37 -13 -10 -22 -24 -19 -31 3 -10 8 -8 18 5 10 12 12 13 9 3 -10 -28
17 -48 57 -43 21 3 35 9 32 14 -3 5 -16 6 -30 3 -18 -5 -24 -2 -24 11 0 13 6
16 25 13 13 -3 27 0 30 6 3 7 7 7 11 -2 5 -10 9 -10 20 -1 11 9 14 8 14 -5 0
-9 -6 -16 -14 -16 -7 0 -16 -9 -19 -21 -5 -18 -2 -20 19 -15 22 6 24 4 24 -34
0 -37 -3 -42 -50 -71 -49 -30 -57 -39 -44 -52 11 -10 45 13 38 25 -4 7 -3 8 4
4 6 -4 23 1 37 10 24 16 25 16 25 -9 0 -17 -10 -33 -30 -47 -16 -12 -30 -17
-30 -11 0 6 -11 11 -25 11 -28 0 -32 -12 -10 -30 12 -10 22 -8 51 9 25 15 39
19 44 11 3 -5 12 -68 18 -138 22 -231 39 -369 48 -383 8 -13 74 -11 297 10
113 11 204 24 212 31 18 15 19 90 5 230 -6 52 -13 136 -16 185 -3 50 -10 94
-14 99 -5 4 -6 32 -3 61 3 30 1 55 -4 58 -6 4 -8 29 -5 57 3 31 1 50 -6 50 -7
0 -9 20 -5 55 4 37 2 55 -5 55 -7 0 -9 17 -5 50 4 34 2 50 -6 50 -8 0 -9 17
-5 55 5 41 4 55 -6 55 -8 0 -10 8 -6 23 3 13 -1 90 -10 173 -8 82 -17 178 -20
214 -6 66 -14 85 -43 99 -9 4 -120 -2 -246 -14z m-924 -382 c13 -16 12 -17 -3
-4 -10 7 -18 15 -18 17 0 8 8 3 21 -13z m659 -406 c0 -7 -4 -6 -10 3 -8 13
-10 12 -10 -2 0 -22 16 -23 27 -3 7 13 13 13 36 3 32 -15 35 -28 7 -28 -12 0
-20 7 -20 18 0 14 -2 15 -9 2 -6 -8 -8 -17 -5 -22 3 -4 -9 -2 -26 3 -25 9 -28
14 -19 30 10 20 29 17 29 -4z m-40 -72 c0 -8 -2 -15 -4 -15 -2 0 -6 7 -10 15
-3 8 -1 15 4 15 6 0 10 -7 10 -15z"/>
<path d="M172 7122 c-6 -15 -13 -40 -16 -57 -6 -30 -27 -312 -31 -410 -1 -27
-5 -63 -9 -80 -3 -16 -8 -83 -11 -148 -3 -65 -7 -123 -11 -128 -3 -5 -5 -33
-5 -61 0 -29 -1 -73 -4 -98 -5 -64 -24 -327 -31 -445 -5 -77 -3 -104 8 -118
11 -15 42 -20 198 -32 218 -17 307 -18 315 -6 3 5 7 24 10 43 7 50 24 221 23
227 -2 7 10 145 18 214 l6 47 29 -21 c24 -17 33 -19 45 -9 12 11 13 10 8 -4
-5 -12 -2 -15 10 -10 9 3 16 10 16 15 0 5 16 9 35 7 19 -1 38 2 42 7 4 4 1 6
-7 3 -8 -3 -24 -2 -35 3 -19 7 -19 8 3 8 12 1 22 6 22 11 0 6 8 10 18 11 11 0
12 2 4 6 -17 7 -72 -16 -72 -31 0 -6 -5 -4 -10 6 -6 9 -30 29 -55 45 -42 26
-45 31 -45 71 0 38 2 42 24 42 13 0 26 6 29 14 4 11 24 15 71 15 63 0 67 -2
153 -61 48 -34 90 -65 93 -68 3 -4 15 -12 28 -19 12 -7 20 -17 16 -23 -4 -6
-1 -9 7 -6 8 3 25 -2 39 -12 31 -21 57 -35 50 -28 -13 16 -323 228 -332 228
-6 0 -7 11 -4 25 5 18 2 25 -8 25 -9 0 -13 -9 -12 -24 2 -17 -3 -26 -15 -29
-14 -4 -19 0 -19 16 0 18 2 19 10 7 5 -8 10 -10 11 -5 0 6 2 18 4 28 2 9 -2
18 -8 18 -7 1 -16 2 -22 4 -5 1 -16 3 -22 3 -7 1 -13 7 -13 13 0 6 5 7 13 2
20 -13 55 -10 50 3 -3 7 20 29 51 50 31 20 56 39 56 42 0 2 -12 -4 -27 -14
-86 -55 -101 -61 -144 -63 -53 -2 -63 10 -59 69 2 33 16 54 31 44 7 -4 20 48
13 55 -2 2 -8 -8 -13 -23 -19 -47 -37 -25 -25 32 4 22 29 31 36 13 2 -5 9 -3
16 5 11 12 7 14 -21 14 -31 0 -34 2 -30 24 4 18 13 26 32 28 l26 3 -28 27
c-16 15 -27 31 -24 35 2 4 8 73 12 153 14 265 15 239 -14 254 -15 8 -103 18
-211 26 -102 6 -206 14 -231 16 -43 3 -48 1 -57 -24z m525 -468 c-3 -3 -12 -4
-19 -1 -8 3 -5 6 6 6 11 1 17 -2 13 -5z m-12 -296 c17 3 25 0 25 -10 0 -10 -8
-13 -30 -10 -23 3 -30 9 -29 26 1 14 3 16 6 5 3 -11 12 -15 28 -11z m2 -34
c-3 -3 -12 -4 -19 -1 -8 3 -5 6 6 6 11 1 17 -2 13 -5z m27 -27 c15 15 36 10
36 -8 0 -15 -7 -18 -35 -17 -28 1 -35 5 -35 21 0 15 3 17 13 8 8 -6 17 -8 21
-4z m-52 -29 c-9 -9 -12 -7 -12 12 0 19 3 21 12 12 9 -9 9 -15 0 -24z m23 -18
c-3 -5 -16 -10 -28 -9 -21 0 -21 1 -2 9 28 12 37 12 30 0z m-10 -140 c25 -16
31 -25 28 -44 -5 -24 -5 -24 -37 -7 -20 12 -32 27 -34 44 -4 32 1 33 43 7z"/>
<path d="M1540 6865 c0 -8 7 -15 16 -15 14 0 14 3 4 15 -7 8 -14 15 -16 15 -2
0 -4 -7 -4 -15z"/>
<path d="M1503 6846 c-13 -6 -23 -14 -23 -18 0 -5 -5 -8 -11 -8 -12 0 -569
-359 -569 -367 0 -3 12 3 28 13 225 148 425 274 429 271 4 -4 -132 -112 -252
-202 -22 -16 -41 -33 -43 -37 -2 -4 -10 -8 -17 -8 -7 0 -16 -7 -19 -16 -3 -8
-10 -12 -16 -9 -6 3 -13 -1 -16 -9 -3 -9 -10 -13 -15 -10 -5 3 -9 -1 -9 -9 0
-8 -7 -17 -15 -21 -8 -3 -15 -1 -15 5 0 5 -17 -2 -37 -17 -52 -38 -62 -48 -40
-41 26 10 20 -8 -8 -23 -14 -7 -25 -17 -25 -22 0 -10 17 -10 22 0 2 5 149 122
328 261 302 235 362 283 350 280 -3 -1 -15 -6 -27 -13z m-108 -86 c-10 -11
-23 -20 -29 -20 -6 0 0 9 14 20 32 25 38 25 15 0z m-474 -370 c-13 -11 -28
-20 -35 -20 -6 0 3 9 19 20 38 25 47 25 16 0z"/>
<path d="M3020 6794 c0 -8 6 -11 13 -8 8 3 34 -10 60 -28 73 -52 406 -312 407
-318 0 -3 -39 -5 -88 -4 -102 0 -112 -2 -106 -24 4 -12 1 -11 -8 3 -16 25 -68
32 -83 11 -12 -16 -63 -22 -104 -12 -13 3 -35 0 -50 -8 -14 -7 -34 -11 -44 -8
-16 3 -17 1 -6 -16 7 -10 21 -19 32 -18 11 1 22 -5 24 -11 7 -19 -27 -29 -38
-12 -7 11 -9 11 -9 -3 0 -10 -5 -18 -11 -18 -5 0 -7 -4 -4 -10 3 -5 17 -10 31
-10 14 0 22 4 19 10 -3 6 1 10 10 10 11 0 15 -5 12 -14 -3 -8 1 -17 9 -20 24
-9 36 -7 29 4 -4 6 -11 7 -17 4 -7 -4 -8 -2 -4 4 8 13 36 5 36 -11 0 -8 3 -8
10 -1 14 14 70 5 70 -12 0 -9 18 -13 68 -12 41 0 59 3 47 8 -11 4 -26 5 -34 2
-8 -3 -12 -1 -8 4 3 6 36 11 72 12 42 1 64 -2 60 -9 -4 -5 -15 -7 -26 -4 -11
4 -19 2 -19 -4 0 -6 20 -11 48 -11 42 0 49 3 65 31 10 18 15 34 11 38 -5 6
-16 -6 -40 -46 -7 -10 -16 -14 -20 -10 -5 5 -1 15 10 23 14 9 16 17 9 26 -6 7
-8 21 -4 31 6 17 8 17 31 -3 l25 -22 3 22 c2 13 -7 37 -19 54 l-23 31 24 -16
c35 -23 41 -98 11 -128 -27 -27 -26 -33 5 -29 15 2 34 14 42 28 l16 25 -25
-22 c-35 -32 -44 -29 -18 6 21 29 22 50 4 106 -7 20 -6 20 9 1 9 -11 16 -35
16 -53 0 -24 5 -33 16 -33 10 0 14 -6 11 -14 -4 -9 0 -12 12 -9 15 4 17 -1 14
-29 l-3 -33 13 35 c12 32 5 56 -14 45 -3 -3 -4 7 -1 20 4 23 6 23 27 9 15 -10
22 -22 19 -37 -2 -12 -2 -16 2 -9 3 6 10 9 16 6 5 -4 8 1 6 9 -1 9 -88 82
-193 163 -104 81 -242 188 -305 239 -109 87 -150 108 -150 79z m325 -382 c-3
-3 -11 0 -18 7 -9 10 -8 11 6 5 10 -3 15 -9 12 -12z m40 0 c-3 -3 -11 0 -18 7
-9 10 -8 11 6 5 10 -3 15 -9 12 -12z m45 -3 c0 -4 -7 -6 -15 -3 -8 4 -15 10
-15 15 0 4 7 6 15 3 8 -4 15 -10 15 -15z m36 -6 c-7 -7 -26 7 -26 19 0 6 6 6
15 -2 9 -7 13 -15 11 -17z m-382 -18 c-6 -16 -24 -21 -24 -7 0 11 11 22 21 22
5 0 6 -7 3 -15z m42 -3 c1 -7 0 -8 -3 -2 -2 5 -9 8 -14 4 -5 -3 -9 0 -9 6 0
15 23 7 26 -8z m150 -5 c5 -1 8 -5 7 -8 -1 -3 30 -4 69 -1 76 5 93 -4 78 -42
-6 -17 -18 -22 -62 -26 -53 -5 -55 -4 -42 15 9 13 10 25 4 35 -8 12 -10 11
-10 -6 0 -12 -7 -27 -15 -34 -8 -7 -15 -9 -15 -4 0 4 -5 3 -12 -4 -14 -14 -48
-16 -48 -3 0 5 8 15 17 22 10 8 14 9 10 2 -4 -6 -4 -14 1 -17 4 -2 9 10 10 29
2 18 -2 36 -8 40 -5 3 -10 12 -10 18 0 8 3 8 9 -1 4 -8 12 -14 17 -15z m-43
-4 c-7 -3 -10 -10 -7 -18 3 -7 0 -23 -6 -35 -11 -20 -12 -21 -25 -4 -13 18
-13 27 -1 55 5 11 15 15 29 11 12 -3 16 -7 10 -9z m-82 -13 c10 0 19 -5 19
-11 0 -7 -10 -9 -25 -7 -14 3 -25 1 -25 -3 0 -5 -4 -9 -10 -9 -5 0 -10 9 -10
21 0 15 4 19 16 15 9 -3 24 -6 35 -6z m-64 -22 c-3 -8 -6 -5 -6 6 -1 11 2 17
5 13 3 -3 4 -12 1 -19z m490 0 c-3 -8 -6 -5 -6 6 -1 11 2 17 5 13 3 -3 4 -12
1 -19z m-392 -28 c3 -5 -1 -10 -9 -10 -9 0 -16 5 -16 10 0 6 4 10 9 10 6 0 13
-4 16 -10z"/>
<path d="M3280 6345 c0 -5 5 -17 10 -25 5 -8 10 -10 10 -5 0 6 -5 17 -10 25
-5 8 -10 11 -10 5z"/>
<path d="M3879 6585 c-7 -7 2 -75 10 -75 4 0 5 18 3 40 -4 41 -5 44 -13 35z"/>
<path d="M3901 6574 c0 -11 3 -14 6 -6 3 7 2 16 -1 19 -3 4 -6 -2 -5 -13z"/>
<path d="M815 6360 c-3 -5 -2 -10 4 -10 5 0 13 5 16 10 3 6 2 10 -4 10 -5 0
-13 -4 -16 -10z"/>
<path d="M3460 6334 c0 -8 5 -12 10 -9 6 4 8 11 5 16 -9 14 -15 11 -15 -7z"/>
<path d="M877 6307 c-30 -12 -31 -30 -1 -35 16 -3 17 -1 4 7 -13 9 -11 12 8
17 12 4 22 10 22 15 0 5 -1 9 -2 8 -2 -1 -15 -6 -31 -12z"/>
<path d="M3718 6293 c6 -2 9 -10 6 -15 -4 -7 -2 -8 4 -4 18 11 14 26 -5 25
-11 0 -13 -3 -5 -6z"/>
<path d="M3639 6261 l24 -6 -29 -14 c-16 -8 -32 -14 -35 -13 -3 0 -28 -17 -57
-38 l-51 -39 -105 14 c-147 19 -282 29 -274 20 4 -5 21 -8 37 -7 24 0 29 -3
24 -16 -5 -16 -5 -16 8 -1 13 16 24 16 154 0 77 -9 145 -20 151 -24 7 -4 26 6
43 22 17 16 31 27 31 25 0 -2 25 12 55 32 61 41 68 54 28 53 -27 -1 -27 -1 -4
-8z"/>
<path d="M3067 6159 c10 -10 83 -31 83 -24 0 2 -14 11 -32 19 -37 19 -68 22
-51 5z"/>
<path d="M3188 6133 c6 -2 18 -2 25 0 6 3 1 5 -13 5 -14 0 -19 -2 -12 -5z"/>
<path d="M955 6120 c-16 -7 -17 -9 -3 -9 9 -1 20 4 23 9 7 11 7 11 -20 0z"/>
<path d="M3278 6123 c6 -2 18 -2 25 0 6 3 1 5 -13 5 -14 0 -19 -2 -12 -5z"/>
<path d="M3643 6123 c9 -2 23 -2 30 0 6 3 -1 5 -18 5 -16 0 -22 -2 -12 -5z"/>
<path d="M3716 6104 c6 -22 3 -24 -32 -25 l-39 -2 45 -8 c64 -11 138 -11 145
1 3 6 1 10 -4 10 -6 0 -10 5 -8 11 1 6 -6 13 -15 14 -10 2 -18 -1 -18 -6 0 -5
6 -9 13 -9 8 0 7 -3 -3 -10 -9 -6 -17 -5 -22 3 -6 9 -8 9 -8 0 0 -7 -9 -13
-20 -13 -25 0 -27 37 -2 42 12 3 9 6 -10 10 -25 5 -27 3 -22 -18z"/>
<path d="M879 6111 c-21 -5 -25 -10 -18 -26 6 -17 8 -17 8 -2 1 9 7 17 15 17
8 0 18 5 21 10 3 6 5 9 3 9 -2 -1 -15 -4 -29 -8z"/>
<path d="M3350 6116 c0 -2 11 -6 25 -8 13 -3 22 -1 19 3 -5 9 -44 13 -44 5z"/>
<path d="M3430 6099 c0 -5 5 -7 10 -4 6 3 10 8 10 11 0 2 -4 4 -10 4 -5 0 -10
-5 -10 -11z"/>
<path d="M3392 6080 c-12 -11 -24 -20 -27 -20 -4 0 -13 -6 -20 -12 -29 -26
-44 -38 -49 -38 -2 0 -15 -9 -28 -20 -12 -11 -34 -29 -48 -41 -14 -11 20 10
75 47 110 74 131 91 124 99 -3 2 -15 -4 -27 -15z"/>
<path d="M935 6070 c-34 -6 -35 -7 -10 -8 17 0 50 3 75 7 40 8 41 8 10 8 -19
0 -53 -3 -75 -7z"/>
<path d="M843 6053 c9 -2 25 -2 35 0 9 3 1 5 -18 5 -19 0 -27 -2 -17 -5z"/>
<path d="M1160 6031 c0 -5 7 -12 16 -15 14 -5 15 -4 4 9 -14 17 -20 19 -20 6z"/>
<path d="M1260 5961 c0 -5 7 -12 16 -15 14 -5 15 -4 4 9 -14 17 -20 19 -20 6z"/>
<path d="M3155 5904 l-30 -26 33 22 c17 12 32 23 32 26 0 7 -4 5 -35 -22z"/>
<path d="M1360 5891 c0 -5 7 -12 16 -15 14 -5 15 -4 4 9 -14 17 -20 19 -20 6z"/>
<path d="M3109 1941 c20 -10 29 -20 21 -23 -7 -2 52 -29 131 -60 l144 -57 6
-68 5 -68 2 72 2 73 -47 21 c-27 12 -101 46 -166 75 -117 53 -164 70 -98 35z
m91 -41 c8 -5 11 -10 5 -10 -5 0 -17 5 -25 10 -8 5 -10 10 -5 10 6 0 17 -5 25
-10z"/>
<path d="M1415 1921 c-28 -13 -36 -20 -25 -24 9 -4 6 -5 -8 -3 -14 3 -20 0
-15 -7 4 -7 0 -8 -11 -4 -11 4 -15 3 -11 -4 4 -6 1 -10 -6 -8 -29 3 -48 -2
-63 -17 -9 -8 -16 -13 -16 -10 0 4 -18 -3 -41 -14 -28 -15 -44 -18 -53 -11 -8
7 -15 4 -24 -9 -6 -11 -34 -29 -62 -41 -28 -12 -49 -23 -47 -25 2 -3 20 3 40
11 20 8 41 15 47 15 6 0 11 -46 12 -122 l2 -123 6 139 c3 99 9 141 18 144 9 3
12 -16 14 -70 l2 -73 5 68 6 69 165 64 c90 36 167 68 170 71 5 5 -26 -3 -59
-15 -9 -3 -12 -1 -7 6 9 14 11 15 -39 -7z"/>
<path d="M3438 1810 c8 -10 12 -62 12 -181 l0 -167 70 31 c38 17 68 32 66 34
-2 2 -30 -8 -61 -22 -32 -14 -60 -24 -62 -22 -2 3 -2 70 -1 149 l3 146 82 -37
c77 -34 83 -38 83 -67 0 -16 6 -36 13 -43 10 -11 10 -13 0 -7 -9 5 -13 0 -13
-12 0 -11 8 -22 18 -24 14 -4 17 3 20 40 1 25 5 48 7 51 12 11 19 -13 18 -59
0 -28 3 -50 7 -50 4 0 8 24 8 54 l0 54 -110 51 c-60 28 -112 51 -115 51 -4 0
-18 10 -32 22 -14 13 -20 16 -13 8z"/>
<path d="M960 1714 l-25 -15 25 7 c14 3 29 10 35 15 15 14 -7 10 -35 -7z"/>
<path d="M3282 1690 c20 -28 22 -67 4 -115 -6 -16 -4 -15 13 5 24 29 27 68 6
96 -20 27 -19 42 3 21 11 -12 17 -33 17 -67 0 -42 3 -50 18 -50 10 0 15 5 12
10 -3 6 1 10 10 10 24 0 29 26 8 54 -10 14 -21 26 -25 26 -4 0 -17 8 -28 18
-11 9 -29 17 -40 18 -18 1 -18 0 2 -26z m78 -65 c0 -8 -4 -15 -10 -15 -5 0 -7
7 -4 15 4 8 8 15 10 15 2 0 4 -7 4 -15z"/>
<path d="M1340 1655 c0 -8 4 -15 10 -15 5 0 7 7 4 15 -4 8 -8 15 -10 15 -2 0
-4 -7 -4 -15z"/>
<path d="M1173 1625 c0 -22 2 -30 4 -17 2 12 2 30 0 40 -3 9 -5 -1 -4 -23z"/>
<path d="M3413 1625 c0 -22 2 -30 4 -17 2 12 2 30 0 40 -3 9 -5 -1 -4 -23z"/>
<path d="M1821 1574 c0 -11 3 -14 6 -6 3 7 2 16 -1 19 -3 4 -6 -2 -5 -13z"/>
<path d="M3408 1555 c2 -14 6 -25 8 -25 2 0 4 11 4 25 0 14 -4 25 -9 25 -4 0
-6 -11 -3 -25z"/>
<path d="M3627 1561 c-4 -17 -2 -18 25 -9 22 8 26 13 16 19 -21 14 -35 10 -41
-10z"/>
<path d="M3305 1560 c-4 -6 -15 -8 -26 -5 -11 4 -19 2 -19 -4 0 -16 46 -13 60
4 8 9 9 15 2 15 -6 0 -14 -5 -17 -10z"/>
<path d="M2910 1542 c0 -9 -18 -12 -70 -10 -38 1 -72 -1 -76 -5 -4 -4 37 -7
92 -6 54 0 92 3 84 6 -8 3 -18 11 -22 17 -5 8 -8 7 -8 -2z"/>
<path d="M3411 1503 c0 -12 -4 -28 -7 -36 -3 -8 -95 -49 -205 -92 -109 -43
-197 -80 -195 -82 2 -2 32 7 67 21 72 30 82 32 54 9 -18 -14 -18 -15 -2 -9 10
3 21 6 23 6 2 0 4 7 4 15 0 16 2 17 42 20 35 3 88 25 88 37 0 5 5 6 10 3 6 -3
10 -1 10 5 0 6 4 9 8 6 4 -2 28 4 52 15 25 11 53 18 62 15 10 -2 21 0 24 5 3
5 0 8 -8 7 -8 -2 -15 12 -19 37 -3 22 -7 30 -8 18z"/>
<path d="M1560 1295 c14 -8 32 -14 40 -14 8 0 0 6 -19 14 -42 19 -54 19 -21 0z"/>
<path d="M2960 1280 c-8 -5 -10 -10 -5 -10 6 0 17 5 25 10 8 5 11 10 5 10 -5
0 -17 -5 -25 -10z"/>
<path d="M1640 1267 c35 -20 74 -32 66 -19 -3 5 -16 12 -28 15 -13 2 -32 8
-43 11 -12 5 -10 2 5 -7z"/>
<path d="M2900 1220 c-8 -5 -10 -10 -5 -10 6 0 17 5 25 10 8 5 11 10 5 10 -5
0 -17 -5 -25 -10z"/>
<path d="M1740 1094 c0 -8 5 -12 10 -9 6 3 10 10 10 16 0 5 -4 9 -10 9 -5 0
-10 -7 -10 -16z"/>
</g>
</svg>
